<svg xmlns="http://www.w3.org/2000/svg" viewBox="0 0 970 250"><title>txt1</title><g id="Layer_2" data-name="Layer 2"><g id="rect"><rect width="970" height="250" fill="none"/></g><g id="TODAY_LET_S_PAINT_OUR_CABINETS" data-name="TODAY LET’S PAINTOUR CABINETS"><path d="M44.67,85.57H35.74V36H24.56V27.77H55.93V36H44.67Z" fill="#e6e7e8"/><path d="M92.68,67.2c0,6.5-1,10.4-3.3,13.69-2.6,3.64-6.93,5.55-12.47,5.55S67,84.53,64.43,80.89c-2.34-3.29-3.3-7.19-3.3-13.69V46.14c0-6.5,1-10.4,3.3-13.69,2.6-3.64,6.93-5.55,12.48-5.55s9.87,1.91,12.47,5.55c2.34,3.29,3.3,7.19,3.3,13.69ZM70.06,67c0,4.6.26,6.16,1.13,7.89a6.8,6.8,0,0,0,11.44,0c1-1.82,1.12-3.21,1.12-7.89V46.31c0-4.68-.17-6.06-1.12-7.88a6.8,6.8,0,0,0-11.44,0c-.87,1.73-1.13,3.29-1.13,7.88Z" fill="#e6e7e8"/><path d="M101.78,27.77H115.9c11.35,0,16.73,5.81,16.73,18.11V67.46c0,12.3-5.38,18.11-16.73,18.11H101.78Zm13.34,49.57c6.33,0,8.58-3.3,8.58-12.31V48.31c0-9.1-2.25-12.31-8.58-12.31H110.7V77.34Z" fill="#e6e7e8"/><path d="M150.65,73l-2.34,12.57h-8.75l11.09-57.8h12.22l11.7,57.8h-9.19L163,73Zm6.07-34.14L152,64.77h9.44Z" fill="#e6e7e8"/><path d="M200.57,85.57h-8.93V63l-13-35.27h9.88l7.71,24.44,8-24.44h9.7L200.57,63Z" fill="#e6e7e8"/><path d="M243.64,77.34H261.4v8.23H234.71V27.77h8.93Z" fill="#e6e7e8"/><path d="M294,36H276.74V51.25h12.74v8.24H276.74V77.34H294v8.23H267.81V27.77H294Z" fill="#e6e7e8"/><path d="M317.29,85.57h-8.92V36H297.19V27.77h31.37V36H317.29Z" fill="#e6e7e8"/><path d="M341.82,37l-5.11,12h-3.3l3.82-12h-3.82V27.77h8.41Z" fill="#e6e7e8"/><path d="M372.32,43.89c-1.39-5.72-4-8.58-7.62-8.58a5.72,5.72,0,0,0-5.81,5.89A8.7,8.7,0,0,0,361.32,47c1.47,1.64,1.47,1.64,7.62,6.32,4.85,3.82,6.67,5.46,8.58,7.8a16.88,16.88,0,0,1,3.73,10.57c0,8.76-6.42,14.74-15.86,14.74-9.88,0-15.69-5.29-17.51-16.3l8.58-2.51c1.13,6.93,4.16,10.4,8.93,10.4A6.28,6.28,0,0,0,372,71.44c0-3.64-1.82-6-8.57-11.26-8.06-6.33-8.41-6.67-10.58-9.45a15.63,15.63,0,0,1-3.2-9.61c0-8.32,6.24-14.22,15.08-14.22,8.23,0,13.77,4.94,16.2,14.48Z" fill="#e6e7e8"/><path d="M411.4,85.57h-8.92V27.77H417.3c5.8,0,9.44,1.13,12.13,3.73,3.12,2.94,4.59,7.28,4.59,13.43s-1.47,10.57-4.59,13.52c-2.69,2.6-6.33,3.72-12.13,3.72h-5.9Zm3.9-31.63c7.2,0,9.45-2.17,9.45-9S422.5,36,415.3,36h-3.9V53.94Z" fill="#e6e7e8"/><path d="M450.05,73l-2.34,12.57H439l11.09-57.8h12.22L474,85.57h-9.18L462.36,73Zm6.07-34.14-4.68,25.91h9.45Z" fill="#e6e7e8"/><path d="M489.92,85.57H481V27.77h8.93Z" fill="#e6e7e8"/><path d="M531.68,85.57h-8l-15.6-38.48V85.57h-8.49V27.77h9l14.56,36v-36h8.49Z" fill="#e6e7e8"/><path d="M557.6,85.57h-8.93V36H537.49V27.77h31.37V36H557.6Z" fill="#e6e7e8"/><path d="M59.31,150c0,6.5-1,10.4-3.29,13.7-2.6,3.63-6.93,5.54-12.48,5.54s-9.88-1.91-12.48-5.54c-2.34-3.3-3.29-7.2-3.29-13.7V128.91c0-6.5.95-10.4,3.29-13.69,2.6-3.64,6.94-5.55,12.48-5.55s9.88,1.91,12.48,5.55c2.34,3.29,3.29,7.19,3.29,13.69Zm-22.61-.17c0,4.59.26,6.15,1.12,7.89a6.4,6.4,0,0,0,5.72,3.12,6.39,6.39,0,0,0,5.72-3.12c1-1.82,1.13-3.21,1.13-7.89V129.08c0-4.68-.18-6.07-1.13-7.89a6.38,6.38,0,0,0-5.72-3.11,6.39,6.39,0,0,0-5.72,3.11c-.86,1.74-1.12,3.3-1.12,7.89Z" fill="#e6e7e8"/><path d="M99,110.54V149.7c0,7.28-.86,11-3.29,14.3s-6.76,5.2-12,5.2-9.53-1.82-12-5.2-3.3-7-3.3-14.3V110.54h8.93v40.64c0,6.84,1.82,9.62,6.41,9.62s6.33-2.78,6.33-9.62V110.54Z" fill="#e6e7e8"/><path d="M117.55,168.33h-8.93V110.54h13.95c5.29,0,8.67,1,11.44,3.46,3.47,3,5.2,7.37,5.2,13.09,0,7.28-2.6,12.3-7.8,15l8.5,26.25h-9.36l-7.63-23.74h-5.37Zm3.29-32c3.81,0,5.55-.43,6.93-1.82s2.17-3.81,2.17-7-.69-5.46-2.17-6.93-3.12-1.82-6.93-1.82h-3.29v17.59Z" fill="#e6e7e8"/><path d="M183.41,129.34v-1.21c0-6.68-2.34-10-6.76-10a5.66,5.66,0,0,0-5.29,2.86c-1.12,1.9-1.38,3.63-1.38,8.31v19.24c0,4.42.26,6.67,1,8.58a6,6,0,0,0,5.72,3.73c3.29,0,5.46-1.91,6.41-5.72.35-1.48.44-2.78.52-7h9v2c0,12.57-5.46,19.15-15.85,19.15-5.81,0-10.4-2.25-12.92-6.41-2.16-3.55-2.77-6.93-2.77-15.51V131.07c0-9.18.69-12.39,3.38-16,2.51-3.46,6.85-5.37,12.22-5.37,9.88,0,15.68,6.59,15.68,17.94v1.73Z" fill="#e6e7e8"/><path d="M210,155.77l-2.34,12.56h-8.75L210,110.54h12.22l11.7,57.79h-9.19l-2.42-12.56Zm6.07-34.14-4.68,25.91h9.44Z" fill="#e6e7e8"/><path d="M241,110.54h13.34c10.84,0,16.9,5.28,16.9,14.64,0,6.85-3,10.92-9.53,12.91,7.8,2.26,10.92,6.24,10.92,13.87,0,10.22-6.41,16.37-17.16,16.37H241Zm12.13,23.57c5.46,0,9-3.21,9-8.15a7.25,7.25,0,0,0-2.16-5.37c-1.48-1.3-3.3-1.82-6.68-1.82h-3.38v15.34Zm1.3,26c5.72,0,8.93-2.94,8.93-8.14,0-5.81-4-9.62-10.23-9.62h-3.21V160.1Z" fill="#e6e7e8"/><path d="M290.26,168.33h-8.93V110.54h8.93Z" fill="#e6e7e8"/><path d="M332,168.33h-8l-15.6-38.47v38.47H300V110.54h9l14.56,36v-36H332Z" fill="#e6e7e8"/><path d="M367.81,118.77H350.57V134h12.74v8.23H350.57V160.1h17.24v8.23H341.64V110.54h26.17Z" fill="#e6e7e8"/><path d="M391.13,168.33H382.2V118.77H371v-8.23h31.37v8.23H391.13Z" fill="#e6e7e8"/><path d="M430,126.65c-1.39-5.71-4-8.57-7.63-8.57a5.71,5.71,0,0,0-5.8,5.89,8.65,8.65,0,0,0,2.42,5.8c1.48,1.65,1.48,1.65,7.63,6.33,4.85,3.81,6.67,5.46,8.58,7.8a16.87,16.87,0,0,1,3.72,10.57c0,8.75-6.41,14.73-15.85,14.73-9.88,0-15.69-5.28-17.51-16.29l8.58-2.51c1.13,6.93,4.16,10.4,8.93,10.4a6.28,6.28,0,0,0,6.58-6.59c0-3.64-1.82-6-8.58-11.26-8.06-6.33-8.4-6.68-10.57-9.45a15.69,15.69,0,0,1-3.21-9.62c0-8.32,6.24-14.21,15.08-14.21,8.23,0,13.78,4.94,16.21,14.47Z" fill="#e6e7e8"/></g><g id="TM"><path d="M578.48,28.67v8h-1v-8H575v-.85h6.09v.85Z" fill="#fbfbfb"/><path d="M589.33,36.72V30l-2.44,5.36h-.81L583.61,30v6.76h-1v-8.9h1l2.89,6.31,2.83-6.31h.95v8.9Z" fill="#fbfbfb"/></g></g></svg>