<svg xmlns="http://www.w3.org/2000/svg" viewBox="0 0 970 250"><title>txt2</title><g id="Layer_2" data-name="Layer 2"><g id="rect"><rect width="970" height="250" fill="none"/></g><g id="WITH_A_NEW_FAST-_DRYING_FORMULA" data-name="WITH A NEW, FAST- DRYING FORMULA"><path d="M59.31,85.57,51.86,46.4l-7,39.17H36.52L25.69,27.77h8.67L40.94,65l6.93-37.26h7.72L63.21,65,69,27.77h8.4l-9.79,57.8Z" fill="#e6e7e8"/><path d="M93.37,85.57H84.45V27.77h8.92Z" fill="#e6e7e8"/><path d="M119.37,85.57h-8.93V36H99.26V27.77h31.37V36H119.37Z" fill="#e6e7e8"/><path d="M145.37,60.09V85.57h-8.93V27.77h8.93V51.86H158.1V27.77H167v57.8H158.1V60.09Z" fill="#e6e7e8"/><path d="M199.79,73l-2.34,12.57h-8.76l11.1-57.8H212l11.7,57.8h-9.18L212.09,73Zm6.06-34.14-4.68,25.91h9.45Z" fill="#e6e7e8"/><path d="M276.91,85.57h-8l-15.6-38.48V85.57h-8.49V27.77h9l14.56,36v-36h8.49Z" fill="#e6e7e8"/><path d="M312.7,36H295.46V51.25h12.73v8.24H295.46V77.34H312.7v8.23H286.53V27.77H312.7Z" fill="#e6e7e8"/><path d="M350.66,85.57,343.2,46.4l-7,39.17h-8.32L317,27.77h8.67L332.29,65l6.93-37.26h7.71L354.56,65l5.8-37.26h8.41L359,85.57Z" fill="#e6e7e8"/><path d="M383.07,85.57l-5.11,12h-3.3l3.81-12h-3.81V76.3h8.41Z" fill="#e6e7e8"/><path d="M414.7,85.57h-8.93V27.77H432.2V36H414.7V51.6h13v8.23h-13Z" fill="#e6e7e8"/><path d="M447.45,73l-2.34,12.57h-8.75l11.09-57.8h12.22l11.7,57.8h-9.19L459.76,73Zm6.07-34.14-4.68,25.91h9.45Z" fill="#e6e7e8"/><path d="M500.14,43.89c-1.39-5.72-4-8.58-7.63-8.58a5.71,5.71,0,0,0-5.8,5.89A8.7,8.7,0,0,0,489.14,47c1.47,1.64,1.47,1.64,7.62,6.32,4.85,3.82,6.67,5.46,8.58,7.8a16.88,16.88,0,0,1,3.73,10.57c0,8.76-6.42,14.74-15.86,14.74-9.88,0-15.69-5.29-17.51-16.3l8.58-2.51c1.13,6.93,4.16,10.4,8.93,10.4a6.28,6.28,0,0,0,6.58-6.59c0-3.64-1.82-6-8.58-11.26-8-6.33-8.4-6.67-10.57-9.45a15.63,15.63,0,0,1-3.2-9.61c0-8.32,6.24-14.22,15.07-14.22,8.24,0,13.78,4.94,16.21,14.48Z" fill="#e6e7e8"/><path d="M532.46,85.57h-8.92V36H512.36V27.77h31.37V36H532.46Z" fill="#e6e7e8"/><path d="M557.51,67.2H545.12V60h12.39Z" fill="#e6e7e8"/><path d="M28.38,110.54H42.5c11.35,0,16.73,5.8,16.73,18.11v21.57c0,12.31-5.38,18.11-16.73,18.11H28.38ZM41.72,160.1c6.33,0,8.58-3.29,8.58-12.3V131.07c0-9.1-2.25-12.3-8.58-12.3H37.3V160.1Z" fill="#e6e7e8"/><path d="M77.17,168.33H68.24V110.54h14c5.29,0,8.67,1,11.44,3.46,3.47,3,5.2,7.37,5.2,13.09,0,7.28-2.6,12.3-7.8,15l8.49,26.25H90.16l-7.62-23.74H77.17Zm3.29-32c3.81,0,5.54-.43,6.93-1.82s2.17-3.81,2.17-7-.7-5.46-2.17-6.93-3.12-1.82-6.93-1.82H77.17v17.59Z" fill="#e6e7e8"/><path d="M126.13,168.33H117.2V145.8l-13-35.26h9.88L121.79,135l8-24.43h9.7L126.13,145.8Z" fill="#e6e7e8"/><path d="M155.07,168.33h-8.92V110.54h8.92Z" fill="#e6e7e8"/><path d="M196.84,168.33h-8l-15.6-38.47v38.47h-8.49V110.54h9l14.56,36v-36h8.49Z" fill="#e6e7e8"/><path d="M237.39,139.65v28.68H232.8l-1.64-4.93c-2.95,4.15-6.16,5.8-10.84,5.8-5.28,0-9.7-2.51-12-6.76-1.9-3.72-2.51-7.45-2.51-15.42v-16c0-9.18.69-12.47,3.38-16,2.51-3.46,6.93-5.37,12.22-5.37,6.33,0,11,2.69,13.6,7.71,1.48,2.86,2.08,6.41,2.08,12h-8.92c0-8-2-11.26-6.85-11.26a5.64,5.64,0,0,0-5.28,2.94c-1,1.91-1.3,3.64-1.3,8.32V147c0,4.76.26,7.28.95,9.44a6.24,6.24,0,0,0,6.07,4.34c4.68,0,6.67-3.38,6.67-11.44V147H221.1v-7.37Z" fill="#e6e7e8"/><path d="M269.2,168.33h-8.93V110.54H286.7v8.23H269.2v15.6h13v8.23h-13Z" fill="#e6e7e8"/><path d="M323.88,150c0,6.5-.95,10.4-3.29,13.7-2.6,3.63-6.94,5.54-12.48,5.54s-9.88-1.91-12.48-5.54c-2.34-3.3-3.29-7.2-3.29-13.7V128.91c0-6.5,1-10.4,3.29-13.69,2.6-3.64,6.93-5.55,12.48-5.55s9.88,1.91,12.48,5.55c2.34,3.29,3.29,7.19,3.29,13.69Zm-22.62-.17c0,4.59.26,6.15,1.13,7.89a6.8,6.8,0,0,0,11.44,0c.95-1.82,1.12-3.21,1.12-7.89V129.08c0-4.68-.17-6.07-1.12-7.89a6.82,6.82,0,0,0-11.44,0c-.87,1.74-1.13,3.3-1.13,7.89Z" fill="#e6e7e8"/><path d="M341.9,168.33H333V110.54h13.95c5.29,0,8.67,1,11.44,3.46,3.47,3,5.2,7.37,5.2,13.09,0,7.28-2.6,12.3-7.8,15l8.49,26.25H354.9l-7.62-23.74H341.9Zm3.3-32c3.81,0,5.54-.43,6.93-1.82s2.17-3.81,2.17-7-.7-5.46-2.17-6.93-3.12-1.82-6.93-1.82h-3.3v17.59Z" fill="#e6e7e8"/><path d="M413.92,168.33h-8.5V125.79l-10.05,42.54h-5l-10-42.54v42.54h-8.49V110.54H385l8,36.3,8.05-36.3h12.92Z" fill="#e6e7e8"/><path d="M454.21,110.54V149.7c0,7.28-.86,11-3.29,14.3s-6.76,5.2-12,5.2-9.53-1.82-12-5.2-3.3-7-3.3-14.3V110.54h8.93v40.64c0,6.84,1.82,9.62,6.41,9.62s6.33-2.78,6.33-9.62V110.54Z" fill="#e6e7e8"/><path d="M472.76,160.1h17.76v8.23H463.83V110.54h8.93Z" fill="#e6e7e8"/><path d="M506,155.77l-2.34,12.56h-8.75L506,110.54h12.22l11.7,57.79h-9.19l-2.43-12.56ZM512,121.63l-4.68,25.91h9.45Z" fill="#e6e7e8"/></g></g></svg>