<svg xmlns="http://www.w3.org/2000/svg" viewBox="0 0 122 33"><title>cta</title><g id="Layer_2" data-name="Layer 2"><g id="Rounded_Rectangle_1" data-name="Rounded Rectangle 1" style="isolation:isolate"><g id="Rounded_Rectangle_1-2" data-name="Rounded Rectangle 1"><rect width="122" height="33" rx="8" fill="none"/></g></g><g id="learn_more" data-name="learn more"><path d="M11.59,23.08h5.13v2.37H9V8.78h2.57Z" transform="translate(0 0)" fill="#303030"/><path d="M26.12,11.16h-5v4.4h3.68v2.37H21.14v5.15h5v2.37H18.57V8.78h7.55Z" transform="translate(0 0)" fill="#303030"/><path d="M30.74,21.83l-.67,3.62H27.54l3.2-16.67h3.53l3.37,16.67H35l-.7-3.62ZM32.49,12l-1.35,7.48h2.73Z" transform="translate(0 0)" fill="#303030"/><path d="M42.24,25.45H39.67V8.78h4a4.61,4.61,0,0,1,3.3,1,4.71,4.71,0,0,1,1.5,3.78c0,2.1-.75,3.55-2.25,4.32l2.45,7.57H46l-2.2-6.85H42.24Zm.95-9.22c1.1,0,1.6-.12,2-.52a2.76,2.76,0,0,0,.63-2,2.73,2.73,0,0,0-.63-2c-.4-.4-.9-.52-2-.52h-.95v5.07Z" transform="translate(0 0)" fill="#303030"/><path d="M60.14,25.45h-2.3l-4.5-11.09V25.45H50.89V8.78h2.6l4.2,10.37V8.78h2.45Z" transform="translate(0 0)" fill="#303030"/><path d="M79.12,25.45H76.67V13.18l-2.9,12.27H72.32L69.44,13.18V25.45H67V8.78h3.78l2.3,10.47L75.39,8.78h3.73Z" transform="translate(0 0)" fill="#303030"/><path d="M90.84,20.15a6.31,6.31,0,0,1-1,4,4.85,4.85,0,0,1-7.2,0,6.38,6.38,0,0,1-1-4V14.08a6.4,6.4,0,0,1,1-3.95,4.85,4.85,0,0,1,7.2,0,6.33,6.33,0,0,1,1,3.95Zm-6.52,0a4.63,4.63,0,0,0,.32,2.28,2,2,0,0,0,3.3,0,4.28,4.28,0,0,0,.33-2.28v-6a4.22,4.22,0,0,0-.33-2.27,2,2,0,0,0-3.3,0,4.6,4.6,0,0,0-.32,2.27Z" transform="translate(0 0)" fill="#303030"/><path d="M96,25.45H93.47V8.78h4a4.61,4.61,0,0,1,3.3,1,4.71,4.71,0,0,1,1.5,3.78c0,2.1-.75,3.55-2.25,4.32l2.45,7.57h-2.7l-2.2-6.85H96ZM97,16.23c1.1,0,1.6-.12,2-.52a2.76,2.76,0,0,0,.63-2,2.73,2.73,0,0,0-.63-2c-.4-.4-.9-.52-2-.52H96v5.07Z" transform="translate(0 0)" fill="#303030"/><path d="M112.24,11.16h-5v4.4h3.67v2.37h-3.67v5.15h5v2.37h-7.55V8.78h7.55Z" transform="translate(0 0)" fill="#303030"/></g></g></svg>