<svg xmlns="http://www.w3.org/2000/svg" viewBox="0 0 320 50"><title>txt1</title><g id="Layer_2" data-name="Layer 2"><g id="rect"><rect width="320" height="50" fill="none"/></g><g id="TODAY_LET_S_PAINT_OUR_CABINETS" data-name="TODAY LET’S PAINTOUR CABINETS"><path d="M13.08,22.55H10.69V9.27h-3V7.07H16.1v2.2h-3Z" fill="#e6e7e8"/><path d="M25.94,17.63a5.88,5.88,0,0,1-.89,3.67,3.89,3.89,0,0,1-3.34,1.48,3.91,3.91,0,0,1-3.34-1.48,5.89,5.89,0,0,1-.88-3.67V12a5.91,5.91,0,0,1,.88-3.67,3.91,3.91,0,0,1,3.34-1.48,3.89,3.89,0,0,1,3.34,1.48A5.9,5.9,0,0,1,25.94,12Zm-6.06-.05a4.35,4.35,0,0,0,.3,2.12,1.71,1.71,0,0,0,1.53.83,1.69,1.69,0,0,0,1.53-.83,4,4,0,0,0,.31-2.12V12a4,4,0,0,0-.31-2.12,1.69,1.69,0,0,0-1.53-.83,1.71,1.71,0,0,0-1.53.83,4.35,4.35,0,0,0-.3,2.12Z" fill="#e6e7e8"/><path d="M28.37,7.07h3.79c3,0,4.48,1.56,4.48,4.85V17.7c0,3.3-1.44,4.85-4.48,4.85H28.37ZM32,20.35c1.69,0,2.3-.89,2.3-3.3V12.57c0-2.44-.61-3.3-2.3-3.3H30.76V20.35Z" fill="#e6e7e8"/><path d="M41.46,19.19l-.62,3.36H38.49l3-15.48h3.27l3.14,15.48H45.41l-.65-3.36ZM43.09,10,41.83,17h2.53Z" fill="#e6e7e8"/><path d="M54.83,22.55H52.44v-6L49,7.07H51.6l2.07,6.54,2.14-6.54H58.4l-3.57,9.45Z" fill="#e6e7e8"/><path d="M66.36,20.35h4.76v2.2H64V7.07h2.39Z" fill="#e6e7e8"/><path d="M79.85,9.27H75.23v4.09h3.41v2.2H75.23v4.79h4.62v2.2h-7V7.07h7Z" fill="#e6e7e8"/><path d="M86.09,22.55H83.7V9.27h-3V7.07h8.4v2.2h-3Z" fill="#e6e7e8"/><path d="M92.66,9.55l-1.37,3.21h-.88l1-3.21h-1V7.07h2.25Z" fill="#e6e7e8"/><path d="M100.83,11.39c-.37-1.54-1.07-2.3-2-2.3a1.53,1.53,0,0,0-1.56,1.58,2.31,2.31,0,0,0,.65,1.55,11.89,11.89,0,0,0,2,1.7,12.76,12.76,0,0,1,2.3,2.09,4.48,4.48,0,0,1,1,2.83c0,2.34-1.72,3.94-4.25,3.94s-4.2-1.41-4.69-4.36l2.3-.67c.3,1.85,1.12,2.78,2.39,2.78a1.68,1.68,0,0,0,1.77-1.76c0-1-.49-1.6-2.3-3-2.16-1.69-2.25-1.79-2.83-2.53a4.17,4.17,0,0,1-.86-2.58,3.77,3.77,0,0,1,4-3.8c2.2,0,3.69,1.32,4.34,3.87Z" fill="#e6e7e8"/><path d="M111.29,22.55H108.9V7.07h4a4.31,4.31,0,0,1,3.25,1,4.65,4.65,0,0,1,1.23,3.6,4.67,4.67,0,0,1-1.23,3.62,4.35,4.35,0,0,1-3.25,1h-1.58Zm1-8.47c1.93,0,2.53-.58,2.53-2.41s-.6-2.4-2.53-2.4h-1v4.81Z" fill="#e6e7e8"/><path d="M121.65,19.19,121,22.55h-2.35l3-15.48h3.27l3.13,15.48h-2.46l-.65-3.36ZM123.27,10,122,17h2.53Z" fill="#e6e7e8"/><path d="M132.32,22.55h-2.39V7.07h2.39Z" fill="#e6e7e8"/><path d="M143.51,22.55h-2.14l-4.18-10.3v10.3h-2.27V7.07h2.41l3.9,9.63V7.07h2.28Z" fill="#e6e7e8"/><path d="M150.45,22.55h-2.39V9.27h-3V7.07h8.4v2.2h-3Z" fill="#e6e7e8"/><path d="M17,36.63a5.89,5.89,0,0,1-.88,3.67,3.91,3.91,0,0,1-3.34,1.48A3.89,3.89,0,0,1,9.44,40.3a5.88,5.88,0,0,1-.89-3.67V31a5.9,5.9,0,0,1,.89-3.67,3.89,3.89,0,0,1,3.34-1.48,3.91,3.91,0,0,1,3.34,1.48A5.91,5.91,0,0,1,17,31Zm-6.06-.05a4.2,4.2,0,0,0,.31,2.12,1.69,1.69,0,0,0,1.53.83,1.71,1.71,0,0,0,1.53-.83,4.1,4.1,0,0,0,.3-2.12V31a4.1,4.1,0,0,0-.3-2.12,1.71,1.71,0,0,0-1.53-.83,1.69,1.69,0,0,0-1.53.83A4.2,4.2,0,0,0,10.94,31Z" fill="#e6e7e8"/><path d="M27.63,26.07V36.56c0,1.95-.23,2.95-.88,3.83a3.84,3.84,0,0,1-3.2,1.39,3.86,3.86,0,0,1-3.23-1.39c-.65-.88-.88-1.88-.88-3.83V26.07h2.39V37c0,1.84.49,2.58,1.72,2.58s1.69-.74,1.69-2.58V26.07Z" fill="#e6e7e8"/><path d="M32.6,41.55H30.21V26.07h3.73A4,4,0,0,1,38.4,30.5a4.12,4.12,0,0,1-2.09,4l2.27,7h-2.5l-2-6.36H32.6ZM33.48,33c1,0,1.48-.12,1.86-.49a2.6,2.6,0,0,0,.58-1.88,2.58,2.58,0,0,0-.58-1.86c-.38-.37-.84-.49-1.86-.49H32.6V33Z" fill="#e6e7e8"/><path d="M50.23,31.11v-.33c0-1.79-.62-2.69-1.81-2.69a1.51,1.51,0,0,0-1.41.76,4,4,0,0,0-.37,2.23v5.16a6.77,6.77,0,0,0,.25,2.29,1.61,1.61,0,0,0,1.53,1A1.71,1.71,0,0,0,50.14,38a8.72,8.72,0,0,0,.14-1.88H52.7v.53c0,3.37-1.47,5.13-4.25,5.13A3.81,3.81,0,0,1,45,40.06c-.58-1-.74-1.85-.74-4.15V31.57c0-2.46.18-3.32.9-4.29a3.89,3.89,0,0,1,3.27-1.44c2.65,0,4.21,1.76,4.21,4.8v.47Z" fill="#e6e7e8"/><path d="M57.36,38.18l-.63,3.37H54.39l3-15.48h3.27l3.14,15.48H61.31l-.65-3.37ZM59,29,57.73,36h2.53Z" fill="#e6e7e8"/><path d="M65.65,26.07h3.57c2.9,0,4.53,1.42,4.53,3.92a3.24,3.24,0,0,1-2.56,3.46c2.09.6,2.93,1.67,2.93,3.71,0,2.74-1.72,4.39-4.6,4.39H65.65Zm3.24,6.31a2.17,2.17,0,0,0,2.42-2.18,2,2,0,0,0-.58-1.44,2.46,2.46,0,0,0-1.79-.49H68v4.11Zm.35,7c1.53,0,2.39-.78,2.39-2.18a2.49,2.49,0,0,0-2.74-2.57H68v4.75Z" fill="#e6e7e8"/><path d="M78.85,41.55H76.46V26.07h2.39Z" fill="#e6e7e8"/><path d="M90,41.55H87.9l-4.18-10.3v10.3H81.45V26.07h2.41l3.9,9.63V26.07H90Z" fill="#e6e7e8"/><path d="M99.62,28.27H95v4.09h3.41v2.2H95v4.78h4.62v2.21h-7V26.07h7Z" fill="#e6e7e8"/><path d="M105.86,41.55h-2.39V28.27h-3v-2.2h8.4v2.2h-3Z" fill="#e6e7e8"/><path d="M116.26,30.39c-.37-1.54-1.07-2.3-2-2.3a1.54,1.54,0,0,0-1.56,1.58,2.36,2.36,0,0,0,.65,1.55,11.74,11.74,0,0,0,2,1.7A13,13,0,0,1,117.65,35a4.53,4.53,0,0,1,1,2.84c0,2.34-1.72,3.94-4.25,3.94s-4.2-1.41-4.68-4.36l2.29-.67c.31,1.85,1.12,2.78,2.39,2.78a1.68,1.68,0,0,0,1.77-1.76c0-1-.49-1.6-2.3-3-2.16-1.69-2.25-1.79-2.83-2.53a4.17,4.17,0,0,1-.86-2.58,3.77,3.77,0,0,1,4-3.8c2.2,0,3.69,1.32,4.34,3.87Z" fill="#e6e7e8"/></g><g id="TM"><path d="M157.88,8v2.68h-.32V8h-.85V7.75h2V8Z" fill="#fbfbfb"/><path d="M161.5,10.72V8.46l-.82,1.79h-.27l-.82-1.79v2.26h-.32v-3h.32l1,2.11.94-2.11h.31v3Z" fill="#fbfbfb"/></g></g></svg>