<svg xmlns="http://www.w3.org/2000/svg" viewBox="0 0 320 50"><title>txt2</title><g id="Layer_2" data-name="Layer 2"><g id="rect"><rect width="320" height="50" fill="none"/></g><g id="WITH_A_NEW_FAST-_DRYING_FORMULA" data-name="WITH A NEW, FAST- DRYING FORMULA"><path d="M17,22.55,15,12.06,13.13,22.55H10.9L8,7.07h2.32l1.76,10,1.86-10H16l2.05,10,1.55-10h2.25L19.23,22.55Z" fill="#e6e7e8"/><path d="M26.12,22.55H23.73V7.07h2.39Z" fill="#e6e7e8"/><path d="M33.08,22.55H30.69V9.27h-3V7.07h8.4v2.2h-3Z" fill="#e6e7e8"/><path d="M40.05,15.73v6.82H37.66V7.07h2.39v6.45h3.41V7.07h2.39V22.55H43.46V15.73Z" fill="#e6e7e8"/><path d="M54.62,19.19,54,22.55H51.65l3-15.48h3.27L61,22.55H58.57l-.65-3.36ZM56.25,10,55,17h2.53Z" fill="#e6e7e8"/><path d="M75.28,22.55H73.14L69,12.25v10.3H66.69V7.07H69.1L73,16.7V7.07h2.28Z" fill="#e6e7e8"/><path d="M84.86,9.27H80.24v4.09h3.41v2.2H80.24v4.79h4.62v2.2h-7V7.07h7Z" fill="#e6e7e8"/><path d="M95,22.55,93,12.06,91.15,22.55H88.92L86,7.07h2.32l1.77,10L92,7.07H94l2,10,1.56-10h2.25L97.25,22.55Z" fill="#e6e7e8"/><path d="M103.71,22.55l-1.37,3.2h-.89l1-3.2h-1V20.07h2.26Z" fill="#e6e7e8"/><path d="M112.18,22.55h-2.39V7.07h7.07v2.2h-4.68v4.18h3.48v2.21h-3.48Z" fill="#e6e7e8"/><path d="M121,19.19l-.63,3.36H118l3-15.48h3.27l3.13,15.48H124.9l-.65-3.36ZM122.57,10,121.32,17h2.53Z" fill="#e6e7e8"/><path d="M135.06,11.39c-.37-1.54-1.07-2.3-2-2.3a1.54,1.54,0,0,0-1.56,1.58,2.31,2.31,0,0,0,.65,1.55,11.89,11.89,0,0,0,2,1.7,12.76,12.76,0,0,1,2.3,2.09,4.48,4.48,0,0,1,1,2.83c0,2.34-1.72,3.94-4.25,3.94s-4.2-1.41-4.68-4.36l2.29-.67c.3,1.85,1.12,2.78,2.39,2.78A1.68,1.68,0,0,0,135,18.77c0-1-.49-1.6-2.3-3-2.16-1.69-2.25-1.79-2.83-2.53a4.17,4.17,0,0,1-.86-2.58,3.77,3.77,0,0,1,4-3.8c2.2,0,3.69,1.32,4.34,3.87Z" fill="#e6e7e8"/><path d="M143.72,22.55h-2.39V9.27h-3V7.07h8.4v2.2h-3Z" fill="#e6e7e8"/><path d="M150.42,17.63H147.1V15.7h3.32Z" fill="#e6e7e8"/><path d="M8.72,26.07H12.5c3,0,4.48,1.56,4.48,4.85V36.7c0,3.3-1.44,4.85-4.48,4.85H8.72Zm3.57,13.27c1.69,0,2.3-.88,2.3-3.29V31.57c0-2.44-.61-3.3-2.3-3.3H11.11V39.34Z" fill="#e6e7e8"/><path d="M21.78,41.55H19.39V26.07h3.74a4.28,4.28,0,0,1,3.06.93,4.35,4.35,0,0,1,1.39,3.5c0,2-.69,3.3-2.08,4l2.27,7H25.26l-2-6.36H21.78ZM22.66,33c1,0,1.49-.12,1.86-.49a2.55,2.55,0,0,0,.58-1.88,2.53,2.53,0,0,0-.58-1.86c-.37-.37-.83-.49-1.86-.49h-.88V33Z" fill="#e6e7e8"/><path d="M34.89,41.55H32.5v-6L29,26.07h2.65l2.06,6.54,2.14-6.54h2.6l-3.58,9.45Z" fill="#e6e7e8"/><path d="M42.65,41.55H40.26V26.07h2.39Z" fill="#e6e7e8"/><path d="M53.83,41.55H51.7l-4.18-10.3v10.3H45.25V26.07h2.41l3.9,9.63V26.07h2.27Z" fill="#e6e7e8"/><path d="M64.69,33.87v7.68H63.46L63,40.23a3.24,3.24,0,0,1-2.9,1.55A3.5,3.5,0,0,1,56.92,40a8.35,8.35,0,0,1-.67-4.13V31.57c0-2.46.18-3.34.9-4.29a3.9,3.9,0,0,1,3.27-1.44,3.84,3.84,0,0,1,3.65,2.06,6.93,6.93,0,0,1,.55,3.21H62.23c0-2.14-.53-3-1.83-3a1.52,1.52,0,0,0-1.42.79,4.3,4.3,0,0,0-.34,2.23v4.73a8.39,8.39,0,0,0,.25,2.53,1.68,1.68,0,0,0,1.63,1.16c1.25,0,1.78-.9,1.78-3.06v-.63h-2v-2Z" fill="#e6e7e8"/><path d="M73.21,41.55H70.82V26.07H77.9v2.2H73.21v4.18h3.48v2.21H73.21Z" fill="#e6e7e8"/><path d="M87.85,36.63A5.89,5.89,0,0,1,87,40.3a4.51,4.51,0,0,1-6.68,0,5.89,5.89,0,0,1-.88-3.67V31a5.91,5.91,0,0,1,.88-3.67,4.51,4.51,0,0,1,6.68,0A5.91,5.91,0,0,1,87.85,31Zm-6-.05a4.35,4.35,0,0,0,.3,2.12,1.83,1.83,0,0,0,3.06,0,4,4,0,0,0,.3-2.12V31a4,4,0,0,0-.3-2.12,1.83,1.83,0,0,0-3.06,0A4.35,4.35,0,0,0,81.8,31Z" fill="#e6e7e8"/><path d="M92.68,41.55H90.29V26.07H94a4.28,4.28,0,0,1,3.06.93,4.35,4.35,0,0,1,1.39,3.5c0,2-.69,3.3-2.08,4l2.27,7H96.16l-2-6.36H92.68ZM93.56,33c1,0,1.49-.12,1.86-.49A2.55,2.55,0,0,0,96,30.62a2.53,2.53,0,0,0-.58-1.86c-.37-.37-.84-.49-1.86-.49h-.88V33Z" fill="#e6e7e8"/><path d="M112,41.55h-2.28V30.15L107,41.55h-1.34L103,30.15v11.4h-2.28V26.07h3.51l2.13,9.72,2.16-9.72H112Z" fill="#e6e7e8"/><path d="M122.76,26.07V36.56c0,1.95-.23,2.95-.88,3.83a4.41,4.41,0,0,1-6.43,0c-.65-.88-.88-1.88-.88-3.83V26.07H117V37c0,1.84.49,2.58,1.72,2.58s1.69-.74,1.69-2.58V26.07Z" fill="#e6e7e8"/><path d="M127.73,39.34h4.75v2.21h-7.14V26.07h2.39Z" fill="#e6e7e8"/><path d="M136.61,38.18,136,41.55h-2.35l3-15.48h3.28L143,41.55h-2.46l-.65-3.37ZM138.24,29,137,36h2.53Z" fill="#e6e7e8"/></g></g></svg>