<svg xmlns="http://www.w3.org/2000/svg" viewBox="0 0 300 600"><title>txt1</title><g id="Layer_2" data-name="Layer 2"><g id="rect"><rect width="300" height="600" fill="none"/></g><g id="today_let_s_paint_our_cabinets" data-name="today let’s paint  our cabinets"><path d="M35.94,156.05h-6V122.68H22.41v-5.54H43.53v5.54H35.94Z" fill="#fbfbfb"/><path d="M67.68,143.68c0,4.37-.65,7-2.22,9.22-1.75,2.45-4.67,3.73-8.4,3.73s-6.65-1.28-8.4-3.73c-1.58-2.22-2.22-4.85-2.22-9.22V129.5c0-4.37.64-7,2.22-9.21,1.75-2.45,4.67-3.74,8.4-3.74s6.65,1.29,8.4,3.74c1.57,2.21,2.22,4.84,2.22,9.21Zm-15.23-.12c0,3.09.18,4.14.76,5.31a4.58,4.58,0,0,0,7.7,0c.64-1.22.76-2.16.76-5.31V129.62c0-3.15-.12-4.08-.76-5.31a4.58,4.58,0,0,0-7.7,0c-.58,1.17-.76,2.22-.76,5.31Z" fill="#fbfbfb"/><path d="M73.22,117.14h9.51c7.64,0,11.25,3.91,11.25,12.19v14.52c0,8.29-3.61,12.2-11.25,12.2H73.22Zm9,33.36c4.26,0,5.78-2.21,5.78-8.28V131c0-6.12-1.52-8.28-5.78-8.28h-3V150.5Z" fill="#fbfbfb"/><path d="M105.53,147.59,104,156.05H98.07l7.46-38.91h8.23l7.87,38.91h-6.18l-1.63-8.46Zm4.09-23-3.15,17.45h6.35Z" fill="#fbfbfb"/><path d="M138.55,156.05h-6V140.88l-8.75-23.74h6.65l5.19,16.45L141,117.14h6.53l-9,23.74Z" fill="#fbfbfb"/><path d="M166.37,150.5h12v5.55h-18V117.14h6Z" fill="#fbfbfb"/><path d="M199.68,122.68H188.07V133h8.58v5.54h-8.58v12h11.61v5.55H182.06V117.14h17.62Z" fill="#fbfbfb"/><path d="M214.79,156.05h-6V122.68h-7.53v-5.54h21.12v5.54h-7.58Z" fill="#fbfbfb"/><path d="M230.71,123.38l-3.44,8.05h-2.21l2.56-8.05h-2.56v-6.24h5.65Z" fill="#fbfbfb"/><path d="M250.66,128c-.93-3.85-2.68-5.78-5.13-5.78a3.85,3.85,0,0,0-3.91,4,5.9,5.9,0,0,0,1.63,3.91c1,1.11,1,1.11,5.14,4.26a32.11,32.11,0,0,1,5.77,5.25,11.32,11.32,0,0,1,2.51,7.11c0,5.89-4.32,9.92-10.67,9.92-6.65,0-10.56-3.56-11.79-11L240,144c.76,4.67,2.8,7,6,7a4.23,4.23,0,0,0,4.43-4.43c0-2.45-1.22-4-5.78-7.59-5.42-4.25-5.65-4.49-7.11-6.35a10.57,10.57,0,0,1-2.16-6.48c0-5.6,4.2-9.57,10.15-9.57,5.54,0,9.27,3.33,10.91,9.75Z" fill="#fbfbfb"/><path d="M31,222.71H25V183.8H35c3.91,0,6.36.76,8.17,2.51,2.1,2,3.09,4.9,3.09,9s-1,7.12-3.09,9.1C41.31,206.2,38.86,207,35,207H31Zm2.63-21.29c4.84,0,6.36-1.46,6.36-6.07s-1.52-6-6.36-6H31v12.07Z" fill="#fbfbfb"/><path d="M56.42,214.25l-1.58,8.46H49l7.47-38.91h8.22l7.88,38.91H66.33l-1.63-8.46Zm4.08-23-3.15,17.44h6.36Z" fill="#fbfbfb"/><path d="M82.67,222.71h-6V183.8h6Z" fill="#fbfbfb"/><path d="M110.2,222.71h-5.37l-10.5-25.9v25.9H88.62V183.8h6.06l9.8,24.21V183.8h5.72Z" fill="#fbfbfb"/><path d="M127.06,222.71h-6V189.35h-7.53V183.8h21.12v5.55h-7.58Z" fill="#fbfbfb"/><path d="M176.64,210.35c0,4.37-.64,7-2.22,9.21-1.75,2.45-4.66,3.74-8.4,3.74s-6.65-1.29-8.4-3.74c-1.57-2.21-2.21-4.84-2.21-9.21V196.17c0-4.37.64-7,2.21-9.22,1.75-2.45,4.67-3.73,8.4-3.73s6.65,1.28,8.4,3.73c1.58,2.22,2.22,4.85,2.22,9.22Zm-15.22-.12c0,3.09.17,4.14.75,5.31a4.58,4.58,0,0,0,7.7,0c.64-1.23.76-2.16.76-5.31V196.29c0-3.15-.12-4.09-.76-5.31a4.58,4.58,0,0,0-7.7,0c-.58,1.17-.75,2.22-.75,5.31Z" fill="#fbfbfb"/><path d="M202.77,183.8v26.37c0,4.9-.58,7.41-2.21,9.63s-4.55,3.5-8.05,3.5-6.42-1.23-8.11-3.5-2.22-4.73-2.22-9.63V183.8h6v27.36c0,4.61,1.22,6.48,4.32,6.48s4.25-1.87,4.25-6.48V183.8Z" fill="#fbfbfb"/><path d="M214.67,222.71h-6V183.8h9.4c3.55,0,5.83.7,7.7,2.34,2.33,2,3.5,5,3.5,8.81,0,4.9-1.75,8.28-5.25,10.09l5.71,17.67h-6.3l-5.13-16h-3.62Zm2.22-21.52c2.57,0,3.73-.29,4.67-1.23s1.45-2.56,1.45-4.72-.46-3.68-1.45-4.67-2.1-1.22-4.67-1.22h-2.22v11.84Z" fill="#fbfbfb"/><path d="M39.62,263.13v-.82c0-4.49-1.58-6.76-4.55-6.76a3.8,3.8,0,0,0-3.56,1.92c-.76,1.28-.93,2.45-.93,5.6V276a16.63,16.63,0,0,0,.64,5.78,4,4,0,0,0,3.85,2.5c2.21,0,3.67-1.28,4.31-3.85a20.89,20.89,0,0,0,.35-4.72H45.8v1.34c0,8.46-3.67,12.89-10.67,12.89-3.91,0-7-1.51-8.7-4.31-1.45-2.4-1.86-4.67-1.86-10.45V264.3c0-6.19.46-8.35,2.27-10.8s4.61-3.61,8.23-3.61c6.65,0,10.56,4.43,10.56,12.07v1.17Z" fill="#fbfbfb"/><path d="M56.94,280.92l-1.57,8.46h-5.9l7.47-38.91h8.23L73,289.38H66.86l-1.64-8.46Zm4.08-23-3.15,17.44h6.36Z" fill="#fbfbfb"/><path d="M77.18,250.47h9c7.29,0,11.37,3.56,11.37,9.86,0,4.61-2,7.35-6.42,8.69,5.25,1.52,7.35,4.2,7.35,9.33,0,6.89-4.31,11-11.55,11H77.18Zm8.17,15.87c3.67,0,6.07-2.16,6.07-5.49A4.88,4.88,0,0,0,90,257.24c-1-.88-2.22-1.23-4.49-1.23H83.19v10.33Zm.87,17.5c3.85,0,6-2,6-5.49,0-3.9-2.68-6.47-6.88-6.47H83.19v12Z" fill="#fbfbfb"/><path d="M109.79,289.38h-6V250.47h6Z" fill="#fbfbfb"/><path d="M137.32,289.38H132l-10.5-25.9v25.9h-5.72V250.47h6.07l9.8,24.21V250.47h5.71Z" fill="#fbfbfb"/><path d="M160.83,256H149.22v10.27h8.58v5.54h-8.58v12h11.61v5.54H143.21V250.47h17.62Z" fill="#fbfbfb"/><path d="M175.94,289.38h-6V256H162.4v-5.54h21.12V256h-7.58Z" fill="#fbfbfb"/><path d="M201.49,261.32c-.94-3.85-2.69-5.77-5.14-5.77a3.84,3.84,0,0,0-3.9,4,5.85,5.85,0,0,0,1.63,3.91c1,1.11,1,1.11,5.13,4.26a32.29,32.29,0,0,1,5.78,5.25,11.39,11.39,0,0,1,2.51,7.12c0,5.89-4.32,9.91-10.68,9.91-6.65,0-10.56-3.56-11.78-11l5.77-1.7c.76,4.67,2.8,7,6,7a4.21,4.21,0,0,0,4.43-4.43c0-2.45-1.22-4-5.77-7.58-5.43-4.26-5.66-4.49-7.12-6.36a10.55,10.55,0,0,1-2.16-6.48c0-5.6,4.2-9.56,10.15-9.56,5.55,0,9.28,3.32,10.91,9.74Z" fill="#fbfbfb"/></g><g id="tm"><path d="M141.18,183.35v5.37h-.63v-5.37h-1.72v-.56h4.07v.56Z" fill="#fbfbfb"/><path d="M148.41,188.72v-4.51l-1.62,3.57h-.54l-1.65-3.57v4.51H144v-5.93h.64l1.93,4.2,1.88-4.2h.64v5.93Z" fill="#fbfbfb"/></g></g></svg>