<svg xmlns="http://www.w3.org/2000/svg" viewBox="0 0 300 600"><title>txt2</title><g id="Layer_2" data-name="Layer 2"><g id="rect"><rect width="300" height="600" fill="none"/></g><g id="with_a_new_fast-drying_formula" data-name="with a new, fast-drying formula"><path d="M45.8,145.91l-5-26.37-4.72,26.37h-5.6L23.17,107H29l4.43,25.08L38.1,107h5.19l5.14,25.08L52.33,107H58L51.4,145.91Z" fill="#fbfbfb"/><path d="M68.14,145.91h-6V107h6Z" fill="#fbfbfb"/><path d="M85.06,145.91h-6V112.54H71.52V107H92.64v5.54H85.06Z" fill="#fbfbfb"/><path d="M102,128.76v17.15H96V107h6v16.22h8.58V107h6v38.91h-6V128.76Z" fill="#fbfbfb"/><path d="M137.44,137.45l-1.57,8.46H130L137.44,107h8.23l7.87,38.91h-6.18l-1.64-8.46Zm4.08-23-3.15,17.44h6.36Z" fill="#fbfbfb"/><path d="M188.19,145.91h-5.37L172.32,120v25.9h-5.71V107h6.06l9.8,24.21V107h5.72Z" fill="#fbfbfb"/><path d="M211.7,112.54H200.09v10.27h8.57v5.54h-8.57v12H211.7v5.54H194.08V107H211.7Z" fill="#fbfbfb"/><path d="M236.66,145.91l-5-26.37-4.73,26.37h-5.6L214,107h5.83l4.44,25.08L229,107h5.2l5.13,25.08L243.2,107h5.66l-6.6,38.91Z" fill="#fbfbfb"/><path d="M257.9,145.91,254.45,154h-2.21l2.56-8.05h-2.56v-6.24h5.66Z" fill="#fbfbfb"/><path d="M31,212.57H25v-38.9H42.77v5.54H31v10.5h8.75v5.54H31Z" fill="#fbfbfb"/><path d="M52.45,204.12l-1.58,8.45H45l7.47-38.9h8.22l7.88,38.9H62.37l-1.64-8.45Zm4.08-23-3.15,17.44h6.36Z" fill="#fbfbfb"/><path d="M87.33,184.52c-.93-3.85-2.68-5.78-5.13-5.78a3.85,3.85,0,0,0-3.91,4,5.85,5.85,0,0,0,1.63,3.91c1,1.1,1,1.1,5.14,4.25a32.89,32.89,0,0,1,5.77,5.25,11.37,11.37,0,0,1,2.51,7.12c0,5.89-4.32,9.92-10.67,9.92-6.65,0-10.56-3.56-11.79-11l5.78-1.69c.76,4.67,2.8,7,6,7a4.23,4.23,0,0,0,4.43-4.43c0-2.45-1.23-4-5.78-7.59-5.42-4.26-5.65-4.49-7.11-6.36a10.52,10.52,0,0,1-2.16-6.47c0-5.6,4.2-9.57,10.15-9.57,5.54,0,9.27,3.33,10.91,9.74Z" fill="#fbfbfb"/><path d="M108.51,212.57h-6V179.21H95v-5.54h21.12v5.54h-7.58Z" fill="#fbfbfb"/><path d="M124.78,200.21h-8.34v-4.84h8.34Z" fill="#fbfbfb"/><path d="M127.76,173.67h9.5c7.65,0,11.26,3.9,11.26,12.19v14.52c0,8.29-3.61,12.19-11.26,12.19h-9.5Zm9,33.36c4.26,0,5.77-2.21,5.77-8.28V187.49c0-6.12-1.51-8.28-5.77-8.28h-3V207Z" fill="#fbfbfb"/><path d="M160,212.57h-6v-38.9h9.39c3.56,0,5.83.7,7.7,2.33,2.33,2,3.5,5,3.5,8.81,0,4.9-1.75,8.28-5.25,10.09l5.71,17.67h-6.3l-5.13-16H160Zm2.22-21.52c2.57,0,3.73-.29,4.67-1.23s1.46-2.56,1.46-4.72-.47-3.68-1.46-4.67-2.1-1.22-4.67-1.22H160v11.84Z" fill="#fbfbfb"/><path d="M192.39,212.57h-6V197.41l-8.75-23.74h6.65l5.19,16.45,5.37-16.45h6.53l-9,23.74Z" fill="#fbfbfb"/><path d="M211.29,212.57h-6v-38.9h6Z" fill="#fbfbfb"/><path d="M238.82,212.57h-5.37L223,186.67v25.9h-5.71v-38.9h6.06l9.8,24.2v-24.2h5.72Z" fill="#fbfbfb"/><path d="M265.54,193.27v19.3h-3.09l-1.11-3.32a8.12,8.12,0,0,1-7.29,3.91,8.8,8.8,0,0,1-8.05-4.55c-1.29-2.51-1.7-5-1.7-10.39V187.49c0-6.18.47-8.4,2.28-10.79s4.67-3.62,8.22-3.62c4.26,0,7.41,1.81,9.16,5.19,1,1.93,1.4,4.32,1.4,8h-6c0-5.36-1.34-7.58-4.6-7.58a3.8,3.8,0,0,0-3.56,2c-.7,1.29-.88,2.45-.88,5.6v11.9a20.8,20.8,0,0,0,.64,6.36A4.21,4.21,0,0,0,255,207.5c3.15,0,4.49-2.28,4.49-7.7v-1.58h-5v-4.95Z" fill="#fbfbfb"/><path d="M31,279.24H25V240.33H42.77v5.54H31v10.5h8.75v5.55H31Z" fill="#fbfbfb"/><path d="M67.21,266.87c0,4.38-.64,7-2.22,9.22-1.75,2.45-4.67,3.73-8.4,3.73s-6.65-1.28-8.4-3.73c-1.57-2.22-2.22-4.84-2.22-9.22V252.7c0-4.38.65-7,2.22-9.22,1.75-2.45,4.67-3.73,8.4-3.73s6.65,1.28,8.4,3.73c1.58,2.22,2.22,4.84,2.22,9.22ZM52,266.76c0,3.09.18,4.14.76,5.31a4.58,4.58,0,0,0,7.7,0c.64-1.23.76-2.16.76-5.31V252.82c0-3.15-.12-4.09-.76-5.31a4.58,4.58,0,0,0-7.7,0c-.58,1.16-.76,2.21-.76,5.31Z" fill="#fbfbfb"/><path d="M78.76,279.24h-6V240.33h9.39c3.56,0,5.83.7,7.7,2.34,2.33,2,3.5,5,3.5,8.8,0,4.9-1.75,8.29-5.25,10.1l5.72,17.67h-6.3l-5.14-16H78.76ZM81,257.72c2.57,0,3.74-.3,4.67-1.23s1.46-2.57,1.46-4.72-.47-3.68-1.46-4.67-2.1-1.23-4.67-1.23H78.76v11.85Z" fill="#fbfbfb"/><path d="M126.65,279.24h-5.72V250.6l-6.76,28.64h-3.39l-6.71-28.64v28.64H98.36V240.33h8.81l5.36,24.44L118,240.33h8.69Z" fill="#fbfbfb"/><path d="M153.19,240.33V266.7c0,4.9-.58,7.41-2.22,9.62s-4.55,3.5-8.05,3.5-6.41-1.22-8.11-3.5-2.21-4.72-2.21-9.62V240.33h6v27.36c0,4.61,1.22,6.48,4.31,6.48s4.26-1.87,4.26-6.48V240.33Z" fill="#fbfbfb"/><path d="M165.09,273.7h12v5.54h-18V240.33h6Z" fill="#fbfbfb"/><path d="M186.85,270.78l-1.58,8.46h-5.89l7.47-38.91h8.22L203,279.24h-6.19l-1.63-8.46Zm4.08-23-3.15,17.44h6.36Z" fill="#fbfbfb"/></g></g></svg>