<svg xmlns="http://www.w3.org/2000/svg" viewBox="0 0 160 600"><title>txt1</title><g id="Layer_2" data-name="Layer 2"><g id="rect"><rect width="160" height="600" fill="none"/></g><g id="today_let_s_paint_our_cabinets" data-name="today let’s paint our cabinets"><path d="M22,131.72H17.23V105.51H11.32v-4.36H27.91v4.36H22Z" fill="#fbfbfb"/><path d="M46.66,122c0,3.43-.5,5.5-1.74,7.24-1.38,1.92-3.67,2.93-6.6,2.93s-5.23-1-6.6-2.93C30.48,127.51,30,125.44,30,122V110.87c0-3.44.5-5.5,1.74-7.24,1.37-1.93,3.66-2.94,6.6-2.94s5.22,1,6.6,2.94c1.24,1.74,1.74,3.8,1.74,7.24Zm-12-.09c0,2.42.13,3.25.59,4.17a3.6,3.6,0,0,0,6.05,0c.51-1,.6-1.7.6-4.17V111c0-2.48-.09-3.21-.6-4.17a3.6,3.6,0,0,0-6.05,0c-.46.92-.59,1.74-.59,4.17Z" fill="#fbfbfb"/><path d="M50.78,101.15h7.47c6,0,8.85,3.07,8.85,9.58v11.41c0,6.51-2.84,9.58-8.85,9.58H50.78Zm7.06,26.22c3.35,0,4.54-1.74,4.54-6.51V112c0-4.81-1.19-6.5-4.54-6.5H55.5v21.86Z" fill="#fbfbfb"/><path d="M76,125.08l-1.24,6.64H70.08L76,101.15h6.46l6.19,30.57H83.74l-1.28-6.64ZM79.15,107l-2.47,13.7h5Z" fill="#fbfbfb"/><path d="M101.66,131.72H96.94V119.81l-6.88-18.66h5.23l4.08,12.93,4.21-12.93h5.14l-7.06,18.66Z" fill="#fbfbfb"/><path d="M18.06,179.45h9.4v4.36H13.34V153.23h4.72Z" fill="#fbfbfb"/><path d="M44,157.59H34.88v8.07h6.74V170H34.88v9.44H44v4.36H30.16V153.23H44Z" fill="#fbfbfb"/><path d="M55.64,183.81H50.92V157.59H45v-4.36H61.6v4.36h-6Z" fill="#fbfbfb"/><path d="M67.92,158.14l-2.7,6.32H63.48l2-6.32h-2v-4.91h4.44Z" fill="#fbfbfb"/><path d="M83.37,161.76c-.73-3-2.11-4.54-4-4.54a3,3,0,0,0-3.07,3.12,4.57,4.57,0,0,0,1.28,3.07c.78.87.78.87,4,3.35a25.2,25.2,0,0,1,4.54,4.12,8.91,8.91,0,0,1,2,5.59c0,4.63-3.39,7.8-8.39,7.8-5.22,0-8.29-2.8-9.26-8.62L75,174.32c.6,3.67,2.2,5.5,4.72,5.5a3.32,3.32,0,0,0,3.49-3.48c0-1.93-1-3.17-4.54-6-4.26-3.35-4.45-3.53-5.59-5a8.29,8.29,0,0,1-1.7-5.09c0-4.4,3.3-7.51,8-7.51,4.35,0,7.29,2.61,8.57,7.65Z" fill="#fbfbfb"/><path d="M18.06,235.89H13.34V205.32h7.84c3.07,0,5,.59,6.41,2,1.65,1.56,2.43,3.85,2.43,7.1s-.78,5.6-2.43,7.15c-1.42,1.38-3.34,2-6.41,2H18.06Zm2.06-16.73c3.81,0,5-1.15,5-4.77s-1.19-4.72-5-4.72H18.06v9.49Z" fill="#fbfbfb"/><path d="M37.81,229.24l-1.23,6.65H32l5.86-30.57h6.47l6.18,30.57H45.61l-1.29-6.65ZM41,211.18l-2.47,13.71h5Z" fill="#fbfbfb"/><path d="M58.21,235.89H53.49V205.32h4.72Z" fill="#fbfbfb"/><path d="M79.61,235.89H75.4l-8.25-20.35v20.35h-4.5V205.32h4.77l7.7,19v-19h4.49Z" fill="#fbfbfb"/><path d="M92.63,235.89H87.91V209.67H82v-4.35h16.6v4.35h-6Z" fill="#fbfbfb"/><path d="M29.7,278.26c0,3.43-.5,5.5-1.74,7.24-1.38,1.92-3.67,2.93-6.6,2.93s-5.23-1-6.6-2.93c-1.24-1.74-1.74-3.81-1.74-7.24V267.12c0-3.44.5-5.5,1.74-7.24,1.37-1.93,3.67-2.94,6.6-2.94s5.22,1,6.6,2.94c1.24,1.74,1.74,3.8,1.74,7.24Zm-12-.09c0,2.42.14,3.25.59,4.17a3.4,3.4,0,0,0,3,1.65,3.38,3.38,0,0,0,3-1.65c.51-1,.6-1.7.6-4.17v-11c0-2.48-.09-3.21-.6-4.17a3.36,3.36,0,0,0-3-1.65,3.38,3.38,0,0,0-3,1.65c-.45.92-.59,1.74-.59,4.17Z" fill="#fbfbfb"/><path d="M50,257.4v20.72c0,3.85-.46,5.82-1.75,7.56a7.56,7.56,0,0,1-6.32,2.75c-2.8,0-5-1-6.37-2.75s-1.74-3.71-1.74-7.56V257.4h4.72v21.5c0,3.62,1,5.09,3.39,5.09s3.34-1.47,3.34-5.09V257.4Z" fill="#fbfbfb"/><path d="M59.13,288H54.4V257.4h7.38c2.8,0,4.59.55,6,1.83,1.84,1.56,2.75,3.9,2.75,6.93q0,5.77-4.12,7.93L71,288H66l-4-12.55H59.13Zm1.74-16.91c2,0,2.93-.23,3.66-1a5.09,5.09,0,0,0,1.15-3.72,5,5,0,0,0-1.15-3.66c-.73-.74-1.65-1-3.66-1H59.13v9.3Z" fill="#fbfbfb"/><path d="M23.58,321.31v-.59c0-3.21-1.12-4.83-3.25-4.83a2.73,2.73,0,0,0-2.54,1.37c-.54.92-.66,1.75-.66,4v9.25a12.07,12.07,0,0,0,.45,4.13,2.9,2.9,0,0,0,2.75,1.79c1.59,0,2.63-.91,3.09-2.75a16,16,0,0,0,.25-3.37H28v.95c0,6.05-2.62,9.21-7.62,9.21-2.8,0-5-1.08-6.21-3.08-1-1.71-1.34-3.33-1.34-7.46v-7.79c0-4.42.34-6,1.63-7.71a7,7,0,0,1,5.87-2.58c4.75,0,7.55,3.16,7.55,8.62v.84Z" fill="#fbfbfb"/><path d="M35.75,334l-1.12,6H30.42l5.33-27.8h5.88l5.62,27.8H42.83l-1.16-6Zm2.92-16.42-2.25,12.46H41Z" fill="#fbfbfb"/><path d="M50,312.26h6.42c5.21,0,8.12,2.54,8.12,7,0,3.3-1.46,5.26-4.58,6.21,3.75,1.09,5.25,3,5.25,6.67,0,4.92-3.08,7.88-8.25,7.88H50Zm5.83,11.34c2.63,0,4.34-1.54,4.34-3.92a3.49,3.49,0,0,0-1-2.58,4.41,4.41,0,0,0-3.21-.88H54.29v7.38Zm.63,12.5c2.75,0,4.29-1.42,4.29-3.92,0-2.79-1.92-4.62-4.92-4.62H54.29v8.54Z" fill="#fbfbfb"/><path d="M73.08,340.06H68.79v-27.8h4.29Z" fill="#fbfbfb"/><path d="M92.54,340.06H88.71l-7.5-18.5v18.5H77.12v-27.8h4.34l7,17.3v-17.3h4.08Z" fill="#fbfbfb"/><path d="M109.13,316.22h-8.3v7.34H107v3.95h-6.13v8.59h8.3v4H96.54v-27.8h12.59Z" fill="#fbfbfb"/><path d="M119.71,340.06h-4.3V316.22H110v-4h15.08v4h-5.41Z" fill="#fbfbfb"/><path d="M137.75,320c-.67-2.75-1.92-4.12-3.67-4.12a2.75,2.75,0,0,0-2.79,2.83,4.17,4.17,0,0,0,1.17,2.79c.71.8.71.8,3.66,3.05a22.87,22.87,0,0,1,4.13,3.75,8.12,8.12,0,0,1,1.79,5.08c0,4.21-3.08,7.08-7.62,7.08-4.76,0-7.55-2.54-8.42-7.83l4.12-1.21c.54,3.34,2,5,4.3,5a3,3,0,0,0,3.16-3.17c0-1.75-.87-2.87-4.12-5.41-3.88-3-4.05-3.21-5.09-4.54a7.56,7.56,0,0,1-1.54-4.63c0-4,3-6.83,7.25-6.83,4,0,6.63,2.37,7.79,6.95Z" fill="#fbfbfb"/></g><g id="tm"><path d="M106.18,205.35v5.37h-.63v-5.37h-1.72v-.56h4.07v.56Z" fill="#fbfbfb"/><path d="M113.41,210.72v-4.51l-1.62,3.57h-.54l-1.65-3.57v4.51H109v-5.93h.64l1.93,4.2,1.88-4.2h.64v5.93Z" fill="#fbfbfb"/></g></g></svg>