<svg xmlns="http://www.w3.org/2000/svg" viewBox="0 0 160 600"><title>txt2</title><g id="Layer_2" data-name="Layer 2"><g id="rect"><rect width="160" height="600" fill="none"/></g><g id="with_a_new_fast-_drying_forumla" data-name="with a new, fast- drying forumla"><path d="M25.85,127.49l-3.76-19.77-3.55,19.77h-4.2L8.88,98.31h4.37l3.32,18.82,3.5-18.82H24l3.85,18.82,2.93-18.82H35l-4.94,29.18Z" fill="#fbfbfb"/><path d="M42.39,127.49H37.88V98.31h4.51Z" fill="#fbfbfb"/><path d="M54.85,127.49h-4.5v-25H44.71V98.31H60.54v4.16H54.85Z" fill="#fbfbfb"/><path d="M67.32,114.63v12.86h-4.5V98.31h4.5v12.17h6.43V98.31h4.51v29.18H73.75V114.63Z" fill="#fbfbfb"/><path d="M14.78,173.23l-1.18,6.35H9.18l5.6-29.18H21l5.9,29.18H22.22L21,173.23ZM17.84,156l-2.36,13.08h4.77Z" fill="#fbfbfb"/><path d="M52.4,179.58h-4l-7.87-19.43v19.43H36.22V150.4h4.55l7.35,18.15V150.4H52.4Z" fill="#fbfbfb"/><path d="M69.82,154.55H61.11v7.7h6.43v4.16H61.11v9h8.71v4.16H56.61V150.4H69.82Z" fill="#fbfbfb"/><path d="M88.32,179.58,84.56,159.8,81,179.58h-4.2L71.35,150.4h4.37l3.33,18.81,3.5-18.81h3.89l3.85,18.81,2.93-18.81h4.25l-5,29.18Z" fill="#fbfbfb"/><path d="M104,179.58l-2.58,6H99.79l1.92-6H99.79V174.9H104Z" fill="#fbfbfb"/><path d="M14.74,231.66H10.23V202.48H23.57v4.16H14.74v7.87H21.3v4.16H14.74Z" fill="#fbfbfb"/><path d="M30.62,225.32l-1.18,6.34H25l5.6-29.18h6.17l5.9,29.18H38.05l-1.22-6.34Zm3.06-17.24-2.36,13.08h4.77Z" fill="#fbfbfb"/><path d="M56.56,210.62c-.7-2.89-2-4.33-3.85-4.33a2.89,2.89,0,0,0-2.93,3A4.4,4.4,0,0,0,51,212.19c.75.83.75.83,3.85,3.2a24.7,24.7,0,0,1,4.34,3.93,8.55,8.55,0,0,1,1.88,5.34c0,4.42-3.24,7.44-8,7.44-5,0-7.92-2.67-8.84-8.23l4.33-1.26c.57,3.49,2.1,5.24,4.51,5.24a3.17,3.17,0,0,0,3.33-3.32c0-1.84-.92-3-4.34-5.69-4.06-3.19-4.24-3.37-5.33-4.77a7.89,7.89,0,0,1-1.62-4.85c0-4.2,3.15-7.18,7.61-7.18,4.16,0,7,2.5,8.18,7.31Z" fill="#fbfbfb"/><path d="M72.22,231.66h-4.5v-25H62.07v-4.16H77.91v4.16H72.22Z" fill="#fbfbfb"/><path d="M84.21,222.39H78v-3.63h6.25Z" fill="#fbfbfb"/><path d="M10.23,254.56h7.13c5.73,0,8.45,2.94,8.45,9.15V274.6c0,6.21-2.72,9.14-8.45,9.14H10.23Zm6.74,25c3.19,0,4.33-1.66,4.33-6.21v-8.45c0-4.59-1.14-6.21-4.33-6.21H14.74v20.87Z" fill="#fbfbfb"/><path d="M34.21,283.74H29.7V254.56h7c2.67,0,4.38.53,5.78,1.75,1.75,1.49,2.62,3.72,2.62,6.61,0,3.68-1.31,6.21-3.93,7.57l4.28,13.25H40.77l-3.85-12H34.21Zm1.66-16.14c1.92,0,2.8-.22,3.5-.92a6.23,6.23,0,0,0,0-7c-.7-.7-1.58-.92-3.5-.92H34.21v8.88Z" fill="#fbfbfb"/><path d="M58.27,283.74H53.76V272.37L47.2,254.56h5l3.89,12.34,4-12.34H65l-6.73,17.81Z" fill="#fbfbfb"/><path d="M72.22,283.74h-4.5V254.56h4.5Z" fill="#fbfbfb"/><path d="M92.65,283.74h-4l-7.88-19.42v19.42H76.47V254.56H81l7.35,18.16V254.56h4.28Z" fill="#fbfbfb"/><path d="M112.47,269.26v14.48h-2.32l-.83-2.49a6.08,6.08,0,0,1-5.47,2.93,6.6,6.6,0,0,1-6-3.41c-1-1.88-1.27-3.76-1.27-7.79v-8.05c0-4.63.35-6.3,1.7-8.09a7.37,7.37,0,0,1,6.17-2.71,7.19,7.19,0,0,1,6.87,3.89,12.92,12.92,0,0,1,1,6h-4.51c0-4-1-5.69-3.45-5.69a2.86,2.86,0,0,0-2.67,1.49c-.52,1-.66,1.84-.66,4.2V273a15.33,15.33,0,0,0,.49,4.77,3.14,3.14,0,0,0,3.06,2.19c2.36,0,3.37-1.71,3.37-5.78V273h-3.72v-3.72Z" fill="#fbfbfb"/><path d="M14.74,335.83H10.23V306.65H23.57v4.15H14.74v7.88H21.3v4.15H14.74Z" fill="#fbfbfb"/><path d="M41.69,326.55c0,3.28-.49,5.25-1.67,6.92-1.31,1.83-3.5,2.8-6.3,2.8a7.37,7.37,0,0,1-6.3-2.8c-1.18-1.67-1.66-3.64-1.66-6.92V315.92c0-3.28.48-5.25,1.66-6.91,1.32-1.84,3.5-2.8,6.3-2.8s5,1,6.3,2.8c1.18,1.66,1.67,3.63,1.67,6.91Zm-11.42-.08c0,2.31.13,3.1.57,4a3.44,3.44,0,0,0,5.77,0c.48-.92.57-1.62.57-4V316c0-2.36-.09-3.06-.57-4a3.42,3.42,0,0,0-5.77,0c-.44.87-.57,1.66-.57,4Z" fill="#fbfbfb"/><path d="M50.13,335.83H45.62V306.65h7.05c2.67,0,4.37.52,5.77,1.75,1.75,1.49,2.63,3.72,2.63,6.6,0,3.68-1.32,6.22-3.94,7.57l4.29,13.26H56.69l-3.85-12H50.13Zm1.66-16.14c1.93,0,2.8-.22,3.5-.92a4.84,4.84,0,0,0,1.1-3.55,4.79,4.79,0,0,0-1.1-3.5c-.7-.7-1.57-.92-3.5-.92H50.13v8.89Z" fill="#fbfbfb"/><path d="M80.05,306.65v19.77c0,3.68-.43,5.56-1.66,7.22a7.22,7.22,0,0,1-6,2.63,7.27,7.27,0,0,1-6.08-2.63c-1.22-1.66-1.66-3.54-1.66-7.22V306.65h4.51v20.52c0,3.45.92,4.85,3.23,4.85s3.2-1.4,3.2-4.85V306.65Z" fill="#fbfbfb"/><path d="M105.47,335.83h-4.29V314.35l-5.07,21.48H93.57l-5-21.48v21.48H84.25V306.65h6.61l4,18.33L99,306.65h6.52Z" fill="#fbfbfb"/><path d="M114.22,331.67h9v4.16H109.72V306.65h4.5Z" fill="#fbfbfb"/><path d="M130.32,329.48l-1.18,6.35h-4.42l5.6-29.18h6.17l5.91,29.18h-4.64l-1.22-6.35Zm3.06-17.23L131,325.33h4.77Z" fill="#fbfbfb"/></g></g></svg>