<svg xmlns="http://www.w3.org/2000/svg" viewBox="0 0 300 250"><title>txt1</title><g id="Layer_2" data-name="Layer 2"><g id="rect"><rect width="300" height="250" fill="none"/></g><g id="TODAY_LET_S_PAINT_OUR_CABINETS" data-name="TODAY LET’S PAINT  OUR CABINETS"><path d="M22.21,48.54H17.85V24.33H12.39v-4H27.71v4h-5.5Z" fill="#e6e7e8"/><path d="M45.66,39.57c0,3.17-.47,5.08-1.61,6.69A7.13,7.13,0,0,1,38,49a7.11,7.11,0,0,1-6.09-2.71c-1.15-1.61-1.61-3.52-1.61-6.69V29.28c0-3.17.46-5.08,1.61-6.68,1.27-1.78,3.38-2.71,6.09-2.71s4.83.93,6.1,2.71c1.14,1.6,1.61,3.51,1.61,6.68Zm-11-.09c0,2.25.12,3,.55,3.86a3.33,3.33,0,0,0,5.59,0c.46-.89.55-1.57.55-3.86V29.37c0-2.29-.09-3-.55-3.85a3.32,3.32,0,0,0-5.59,0c-.43.84-.55,1.6-.55,3.85Z" fill="#e6e7e8"/><path d="M50.1,20.31H57c5.54,0,8.17,2.84,8.17,8.85V39.7c0,6-2.63,8.84-8.17,8.84H50.1Zm6.52,24.21c3.09,0,4.19-1.61,4.19-6V30.34c0-4.44-1.1-6-4.19-6H54.46V44.52Z" fill="#e6e7e8"/><path d="M74,42.4l-1.15,6.14H68.55L74,20.31h6l5.71,28.23H81.16L80,42.4Zm3-16.67L74.65,38.38h4.61Z" fill="#e6e7e8"/><path d="M98.35,48.54H94v-11L87.64,20.31h4.82l3.77,11.94,3.89-11.94h4.74L98.35,37.54Z" fill="#e6e7e8"/><path d="M119.38,44.52h8.68v4H115V20.31h4.36Z" fill="#e6e7e8"/><path d="M144,24.33h-8.42v7.45h6.22v4h-6.22v8.72H144v4H131.19V20.31H144Z" fill="#e6e7e8"/><path d="M155.35,48.54H151V24.33h-5.46v-4h15.33v4h-5.51Z" fill="#e6e7e8"/><path d="M167.33,24.84l-2.5,5.84h-1.61l1.87-5.84h-1.87V20.31h4.11Z" fill="#e6e7e8"/><path d="M182.23,28.18c-.68-2.79-1.95-4.19-3.73-4.19a2.79,2.79,0,0,0-2.83,2.88,4.27,4.27,0,0,0,1.18,2.84c.72.8.72.8,3.73,3.09a23.19,23.19,0,0,1,4.19,3.81,8.23,8.23,0,0,1,1.82,5.16c0,4.27-3.13,7.2-7.75,7.2-4.82,0-7.66-2.59-8.55-8l4.19-1.23c.55,3.39,2,5.08,4.36,5.08a3.07,3.07,0,0,0,3.22-3.22c0-1.78-.89-2.92-4.19-5.5-3.94-3.09-4.11-3.26-5.17-4.61a7.72,7.72,0,0,1-1.56-4.7c0-4.07,3.05-6.94,7.36-6.94,4,0,6.73,2.41,7.92,7.06Z" fill="#e6e7e8"/><path d="M18.61,89H14.25V60.73h7.24c2.83,0,4.61.55,5.92,1.82,1.53,1.44,2.25,3.56,2.25,6.56s-.72,5.17-2.25,6.61c-1.31,1.26-3.09,1.82-5.92,1.82H18.61Zm1.9-15.45c3.52,0,4.62-1.05,4.62-4.4s-1.1-4.36-4.62-4.36h-1.9v8.76Z" fill="#e6e7e8"/><path d="M37.49,82.83,36.34,89H32.07l5.42-28.23h6L49.17,89H44.68L43.5,82.83Zm3-16.68L38.16,78.81h4.62Z" fill="#e6e7e8"/><path d="M57,89H52.59V60.73H57Z" fill="#e6e7e8"/><path d="M77.35,89H73.46L65.84,70.17V89H61.69V60.73h4.4L73.21,78.3V60.73h4.14Z" fill="#e6e7e8"/><path d="M90,89H85.65V64.75H80.19v-4H95.51v4H90Z" fill="#e6e7e8"/><path d="M127.25,80c0,3.18-.46,5.08-1.61,6.69-1.27,1.78-3.38,2.71-6.09,2.71s-4.83-.93-6.1-2.71c-1.14-1.61-1.61-3.51-1.61-6.69V69.7c0-3.17.47-5.07,1.61-6.68,1.27-1.78,3.39-2.71,6.1-2.71s4.82.93,6.09,2.71c1.15,1.61,1.61,3.51,1.61,6.68Zm-11-.08c0,2.24.13,3,.55,3.85a3.33,3.33,0,0,0,5.59,0c.47-.89.55-1.57.55-3.85V69.79c0-2.29-.08-3-.55-3.85a3.32,3.32,0,0,0-5.59,0c-.42.84-.55,1.61-.55,3.85Z" fill="#e6e7e8"/><path d="M146.64,60.73V79.86c0,3.56-.43,5.38-1.61,7a8,8,0,0,1-11.73,0c-1.18-1.61-1.61-3.43-1.61-7V60.73h4.36V80.58c0,3.35.89,4.7,3.14,4.7s3.09-1.35,3.09-4.7V60.73Z" fill="#e6e7e8"/><path d="M155.69,89h-4.36V60.73h6.82c2.58,0,4.23.51,5.58,1.69,1.7,1.44,2.54,3.6,2.54,6.4,0,3.55-1.27,6-3.81,7.32L166.61,89H162l-3.72-11.59h-2.63Zm1.61-15.62c1.86,0,2.71-.21,3.39-.88A4.7,4.7,0,0,0,161.75,69a4.64,4.64,0,0,0-1.06-3.39c-.68-.68-1.53-.89-3.39-.89h-1.61v8.59Z" fill="#e6e7e8"/><path d="M24.87,110.34v-.59c0-3.26-1.14-4.91-3.3-4.91A2.76,2.76,0,0,0,19,106.23c-.55.93-.68,1.78-.68,4.07v9.39a12,12,0,0,0,.47,4.19,2.93,2.93,0,0,0,2.79,1.82c1.61,0,2.67-.93,3.13-2.79a15.56,15.56,0,0,0,.26-3.43h4.4v1c0,6.14-2.67,9.36-7.75,9.36a7,7,0,0,1-6.3-3.13c-1.06-1.74-1.36-3.39-1.36-7.58v-7.92c0-4.48.34-6.05,1.65-7.83a7.09,7.09,0,0,1,6-2.62c4.83,0,7.66,3.22,7.66,8.76v.85Z" fill="#e6e7e8"/><path d="M37.87,123.25l-1.15,6.14H32.45l5.42-28.24h6l5.72,28.24H45.06l-1.18-6.14Zm3-16.68-2.29,12.66h4.62Z" fill="#e6e7e8"/><path d="M53,101.15h6.52c5.29,0,8.26,2.58,8.26,7.16,0,3.34-1.48,5.33-4.66,6.3,3.81,1.1,5.33,3,5.33,6.78,0,5-3.13,8-8.38,8H53Zm5.93,11.52c2.67,0,4.4-1.57,4.4-4a3.55,3.55,0,0,0-1.06-2.63,4.5,4.5,0,0,0-3.26-.89H57.33v7.5Zm.64,12.69c2.79,0,4.35-1.43,4.35-4,0-2.84-1.94-4.7-5-4.7H57.33v8.67Z" fill="#e6e7e8"/><path d="M77.06,129.39H72.7V101.15h4.36Z" fill="#e6e7e8"/><path d="M97.46,129.39h-3.9l-7.62-18.8v18.8H81.8V101.15h4.4l7.11,17.57V101.15h4.15Z" fill="#e6e7e8"/><path d="M114.94,105.17h-8.43v7.45h6.22v4h-6.22v8.71h8.43v4H102.15V101.15h12.79Z" fill="#e6e7e8"/><path d="M126.32,129.39H122V105.17H116.5v-4h15.32v4h-5.5Z" fill="#e6e7e8"/><path d="M145.28,109c-.68-2.8-1.95-4.19-3.72-4.19a2.79,2.79,0,0,0-2.84,2.87,4.23,4.23,0,0,0,1.18,2.84c.72.8.72.8,3.73,3.09a23.57,23.57,0,0,1,4.19,3.81,8.27,8.27,0,0,1,1.82,5.16c0,4.28-3.13,7.2-7.75,7.2-4.82,0-7.66-2.58-8.55-8l4.19-1.23c.55,3.39,2,5.08,4.36,5.08a3.06,3.06,0,0,0,3.22-3.21c0-1.78-.89-2.92-4.19-5.51-3.94-3.09-4.11-3.26-5.16-4.61a7.62,7.62,0,0,1-1.57-4.7c0-4.06,3.05-6.94,7.37-6.94,4,0,6.73,2.41,7.91,7.07Z" fill="#e6e7e8"/></g><g id="TM"><path d="M101.18,61.35v5.37h-.63V61.35H98.83v-.56h4.07v.56Z" fill="#fbfbfb"/><path d="M108.41,66.72V62.21l-1.62,3.57h-.54l-1.65-3.57v4.51H104V60.79h.64l1.93,4.2,1.88-4.2h.64v5.93Z" fill="#fbfbfb"/></g></g></svg>