<svg xmlns="http://www.w3.org/2000/svg" viewBox="0 0 300 250"><title>txt2</title><g id="Layer_2" data-name="Layer 2"><g id="rect"><rect width="300" height="250" fill="none"/></g><g id="_Text_Layer_1" data-name="&lt;Text Layer&gt; 1"><path d="M29.36,48.54,25.72,29.41,22.29,48.54H18.23L12.94,20.31h4.23l3.22,18.2,3.38-18.2h3.77l3.73,18.2,2.83-18.2h4.11L33.42,48.54Z" fill="#e6e7e8"/><path d="M46,48.54H41.63V20.31H46Z" fill="#e6e7e8"/><path d="M58.69,48.54H54.33V24.33H48.87v-4H64.19v4h-5.5Z" fill="#e6e7e8"/><path d="M71.39,36.1V48.54H67V20.31h4.36V32.08h6.22V20.31H82V48.54H77.61V36.1Z" fill="#e6e7e8"/><path d="M98,42.4l-1.14,6.14H92.55L98,20.31h6l5.72,28.23h-4.49L104,42.4Zm3-16.67L98.64,38.38h4.61Z" fill="#e6e7e8"/><path d="M135.63,48.54h-3.89l-7.62-18.79V48.54H120V20.31h4.4l7.11,17.57V20.31h4.15Z" fill="#e6e7e8"/><path d="M153.11,24.33h-8.42v7.45h6.22v4h-6.22v8.72h8.42v4H140.33V20.31h12.78Z" fill="#e6e7e8"/><path d="M171.65,48.54,168,29.41l-3.43,19.13h-4.06l-5.29-28.23h4.23l3.21,18.2,3.39-18.2h3.77l3.72,18.2,2.84-18.2h4.11l-4.79,28.23Z" fill="#e6e7e8"/><path d="M187.48,48.54,185,54.38h-1.61l1.86-5.84h-1.86V44h4.11Z" fill="#e6e7e8"/><path d="M18.61,89H14.25V60.73H27.16v4H18.61v7.62H25v4H18.61Z" fill="#e6e7e8"/><path d="M34.61,82.83,33.46,89H29.19l5.42-28.23h6L46.29,89H41.8l-1.18-6.13Zm3-16.68L35.28,78.81H39.9Z" fill="#e6e7e8"/><path d="M60.34,68.6c-.68-2.79-2-4.19-3.73-4.19a2.8,2.8,0,0,0-2.83,2.88A4.25,4.25,0,0,0,55,70.13c.72.8.72.8,3.73,3.09A23.19,23.19,0,0,1,62.88,77a8.25,8.25,0,0,1,1.82,5.16c0,4.28-3.13,7.2-7.75,7.2-4.82,0-7.66-2.58-8.55-8l4.19-1.23c.55,3.39,2,5.08,4.36,5.08a3.07,3.07,0,0,0,3.22-3.22c0-1.77-.89-2.92-4.19-5.5C52,73.47,51.87,73.3,50.82,72a7.62,7.62,0,0,1-1.57-4.7c0-4.06,3-6.94,7.36-6.94,4,0,6.73,2.41,7.92,7.07Z" fill="#e6e7e8"/><path d="M76.13,89H71.77V64.75H66.31v-4H81.63v4h-5.5Z" fill="#e6e7e8"/><path d="M88.36,80H82.3V76.48h6.06Z" fill="#e6e7e8"/><path d="M90.94,60.73h6.9c5.54,0,8.17,2.84,8.17,8.85V80.12c0,6-2.63,8.84-8.17,8.84h-6.9Zm6.52,24.21c3.09,0,4.19-1.61,4.19-6V70.76c0-4.44-1.1-6-4.19-6H95.3V84.94Z" fill="#e6e7e8"/><path d="M114.77,89h-4.36V60.73h6.81c2.58,0,4.23.51,5.59,1.69a8,8,0,0,1,2.54,6.4c0,3.55-1.27,6-3.81,7.32L125.69,89h-4.58l-3.72-11.59h-2.62Zm1.6-15.62c1.87,0,2.71-.21,3.39-.88A4.7,4.7,0,0,0,120.82,69a4.64,4.64,0,0,0-1.06-3.39c-.68-.68-1.52-.89-3.39-.89h-1.6v8.59Z" fill="#e6e7e8"/><path d="M138.68,89h-4.36V78L128,60.73h4.82l3.77,11.94,3.9-11.94h4.74L138.68,78Z" fill="#e6e7e8"/><path d="M152.81,89h-4.36V60.73h4.36Z" fill="#e6e7e8"/><path d="M173.21,89h-3.89L161.7,70.17V89h-4.15V60.73H162l7.12,17.57V60.73h4.14Z" fill="#e6e7e8"/><path d="M193,75V89h-2.24L190,86.55a5.89,5.89,0,0,1-5.29,2.84,6.4,6.4,0,0,1-5.84-3.3c-.93-1.82-1.23-3.64-1.23-7.54V70.76c0-4.48.34-6.09,1.65-7.83a7.15,7.15,0,0,1,6-2.62,7,7,0,0,1,6.65,3.77,12.43,12.43,0,0,1,1,5.84h-4.36c0-3.9-1-5.51-3.34-5.51a2.76,2.76,0,0,0-2.58,1.44c-.51.93-.64,1.78-.64,4.07v8.63a14.89,14.89,0,0,0,.47,4.62,3,3,0,0,0,3,2.11c2.29,0,3.26-1.65,3.26-5.59V78.55h-3.6V75Z" fill="#e6e7e8"/><path d="M18.61,129.39H14.25V101.15H27.16v4H18.61v7.62H25v4H18.61Z" fill="#e6e7e8"/><path d="M45.32,120.41c0,3.18-.47,5.08-1.61,6.69-1.27,1.78-3.39,2.71-6.1,2.71s-4.82-.93-6.09-2.71c-1.15-1.61-1.61-3.51-1.61-6.69V110.13c0-3.18.46-5.08,1.61-6.69,1.27-1.78,3.38-2.71,6.09-2.71s4.83.93,6.1,2.71c1.14,1.61,1.61,3.51,1.61,6.69Zm-11-.08c0,2.24.13,3,.55,3.85a3.33,3.33,0,0,0,5.59,0c.46-.89.55-1.57.55-3.85V110.21c0-2.28-.09-3-.55-3.85a3.33,3.33,0,0,0-5.59,0c-.42.85-.55,1.61-.55,3.85Z" fill="#e6e7e8"/><path d="M54.12,129.39H49.76V101.15h6.81c2.58,0,4.24.51,5.59,1.7a8,8,0,0,1,2.54,6.39c0,3.55-1.27,6-3.81,7.32L65,129.39H60.47l-3.73-11.6H54.12Zm1.61-15.62c1.86,0,2.71-.21,3.38-.89a6,6,0,0,0,0-6.82c-.67-.67-1.52-.89-3.38-.89H54.12v8.6Z" fill="#e6e7e8"/><path d="M89.29,129.39H85.14V108.6l-4.91,20.79H77.78L72.91,108.6v20.79H68.76V101.15h6.39l3.9,17.74L83,101.15h6.31Z" fill="#e6e7e8"/><path d="M109,101.15v19.14c0,3.55-.42,5.37-1.61,7a8,8,0,0,1-11.72,0c-1.19-1.61-1.61-3.43-1.61-7V101.15h4.36V121c0,3.35.89,4.7,3.13,4.7s3.09-1.35,3.09-4.7V101.15Z" fill="#e6e7e8"/><path d="M118,125.36h8.68v4h-13V101.15H118Z" fill="#e6e7e8"/><path d="M134.23,123.25l-1.14,6.14h-4.27l5.41-28.24h6l5.72,28.24h-4.49l-1.19-6.14Zm3-16.68-2.29,12.66h4.62Z" fill="#e6e7e8"/></g></g></svg>