<svg xmlns="http://www.w3.org/2000/svg" viewBox="0 0 728 90"><title>txt1</title><g id="Layer_2" data-name="Layer 2"><g id="rect"><rect width="728" height="90" fill="none"/></g><g id="today_let_s_paint_our_cabinets" data-name="today let’s paint  our cabinets"><path d="M37.46,60.18H33v-25H27.31V31H43.14v4.16H37.46Z" fill="#fbfbfb"/><path d="M61,50.91c0,3.28-.48,5.25-1.67,6.91-1.31,1.84-3.5,2.8-6.3,2.8s-5-1-6.3-2.8c-1.18-1.66-1.66-3.63-1.66-6.91V40.28c0-3.28.48-5.25,1.66-6.92a7.37,7.37,0,0,1,6.3-2.8c2.8,0,5,1,6.3,2.8C60.56,35,61,37,61,40.28Zm-11.42-.09c0,2.32.13,3.1.57,4a3.42,3.42,0,0,0,5.77,0c.48-.92.57-1.62.57-4V40.36c0-2.36-.09-3.06-.57-4a3.44,3.44,0,0,0-5.77,0c-.44.88-.57,1.66-.57,4Z" fill="#fbfbfb"/><path d="M65,31h7.14c5.73,0,8.44,2.93,8.44,9.15V51c0,6.21-2.71,9.14-8.44,9.14H65Zm6.74,25c3.2,0,4.33-1.67,4.33-6.22V41.37c0-4.59-1.13-6.21-4.33-6.21H69.48V56Z" fill="#fbfbfb"/><path d="M89,53.84l-1.18,6.34H83.39L89,31h6.17l5.91,29.18H96.43l-1.22-6.34ZM92.06,36.6,89.69,49.68h4.77Z" fill="#fbfbfb"/><path d="M113.54,60.18H109V48.81L102.47,31h5l3.89,12.34,4-12.34h4.9l-6.73,17.81Z" fill="#fbfbfb"/><path d="M134,56h9v4.15H129.46V31H134Z" fill="#fbfbfb"/><path d="M158.73,35.16H150v7.7h6.43V47H150v9h8.71v4.15H145.52V31h13.21Z" fill="#fbfbfb"/><path d="M169.84,60.18h-4.51v-25h-5.64V31h15.84v4.16h-5.69Z" fill="#fbfbfb"/><path d="M181.57,35.68l-2.59,6h-1.66l1.93-6h-1.93V31h4.25Z" fill="#fbfbfb"/><path d="M196.31,39.14c-.7-2.89-2-4.33-3.85-4.33a2.89,2.89,0,0,0-2.93,3,4.4,4.4,0,0,0,1.22,2.93c.75.83.75.83,3.85,3.2a24.17,24.17,0,0,1,4.33,3.93,8.55,8.55,0,0,1,1.88,5.34c0,4.42-3.23,7.44-8,7.44-5,0-7.92-2.67-8.84-8.23l4.33-1.26c.57,3.5,2.1,5.25,4.51,5.25a3.17,3.17,0,0,0,3.32-3.33c0-1.84-.92-3-4.33-5.69-4.07-3.19-4.24-3.37-5.33-4.77a7.89,7.89,0,0,1-1.62-4.85c0-4.2,3.15-7.18,7.61-7.18,4.15,0,6.95,2.5,8.18,7.31Z" fill="#fbfbfb"/><path d="M214.73,60.18h-4.51V31h7.48c2.93,0,4.77.57,6.13,1.88,1.57,1.49,2.32,3.68,2.32,6.78s-.75,5.34-2.32,6.83c-1.36,1.31-3.2,1.88-6.13,1.88h-3Zm2-16c3.63,0,4.76-1.09,4.76-4.55s-1.13-4.5-4.76-4.5h-2v9.05Z" fill="#fbfbfb"/><path d="M233.58,53.84l-1.18,6.34H228L233.58,31h6.17l5.91,29.18H241l-1.22-6.34Zm3.07-17.24-2.37,13.08h4.77Z" fill="#fbfbfb"/><path d="M253.05,60.18h-4.5V31h4.5Z" fill="#fbfbfb"/><path d="M273.48,60.18h-4l-7.88-19.42V60.18H257.3V31h4.55l7.34,18.16V31h4.29Z" fill="#fbfbfb"/><path d="M285.91,60.18H281.4v-25h-5.64V31h15.83v4.16h-5.68Z" fill="#fbfbfb"/><path d="M322.44,50.91c0,3.28-.48,5.25-1.66,6.91-1.32,1.84-3.5,2.8-6.3,2.8s-5-1-6.3-2.8c-1.18-1.66-1.67-3.63-1.67-6.91V40.28c0-3.28.49-5.25,1.67-6.92,1.31-1.83,3.5-2.8,6.3-2.8a7.37,7.37,0,0,1,6.3,2.8C322,35,322.44,37,322.44,40.28ZM311,50.82c0,2.32.13,3.1.57,4a3.42,3.42,0,0,0,5.77,0c.48-.92.57-1.62.57-4V40.36c0-2.36-.09-3.06-.57-4a3.44,3.44,0,0,0-5.77,0c-.44.88-.57,1.66-.57,4Z" fill="#fbfbfb"/><path d="M341.82,31V50.78c0,3.67-.44,5.55-1.66,7.21A8.3,8.3,0,0,1,328,58c-1.23-1.66-1.66-3.54-1.66-7.21V31h4.5V51.52c0,3.45.92,4.86,3.24,4.86s3.19-1.41,3.19-4.86V31Z" fill="#fbfbfb"/><path d="M350.53,60.18H346V31h7c2.67,0,4.38.53,5.78,1.75,1.75,1.49,2.62,3.72,2.62,6.61,0,3.67-1.31,6.21-3.93,7.57l4.28,13.25h-4.72l-3.85-12h-2.71ZM352.19,44c1.92,0,2.8-.22,3.5-.92a4.86,4.86,0,0,0,1.09-3.54,4.8,4.8,0,0,0-1.09-3.5c-.7-.7-1.58-.92-3.5-.92h-1.66V44Z" fill="#fbfbfb"/><path d="M382.46,40.49v-.61c0-3.37-1.18-5.07-3.41-5.07a2.85,2.85,0,0,0-2.67,1.44c-.57,1-.7,1.84-.7,4.2v9.71a12.49,12.49,0,0,0,.48,4.33,3,3,0,0,0,2.89,1.89c1.66,0,2.76-1,3.24-2.89a16.71,16.71,0,0,0,.26-3.55h4.55v1c0,6.34-2.76,9.67-8,9.67-2.93,0-5.25-1.14-6.51-3.24-1.1-1.79-1.4-3.5-1.4-7.83V41.37c0-4.64.35-6.26,1.7-8.09a7.33,7.33,0,0,1,6.17-2.72c5,0,7.92,3.33,7.92,9.06v.87Z" fill="#fbfbfb"/><path d="M395.24,53.84l-1.18,6.34h-4.42L395.24,31h6.17l5.9,29.18h-4.64l-1.22-6.34ZM398.3,36.6l-2.36,13.08h4.77Z" fill="#fbfbfb"/><path d="M410.2,31h6.74c5.47,0,8.53,2.67,8.53,7.4,0,3.45-1.53,5.51-4.81,6.51,3.93,1.14,5.51,3.15,5.51,7,0,5.17-3.24,8.27-8.66,8.27H410.2Zm6.12,11.9c2.76,0,4.55-1.62,4.55-4.11a3.63,3.63,0,0,0-1.09-2.71c-.74-.66-1.66-.92-3.37-.92h-1.7V42.9ZM417,56c2.89,0,4.51-1.49,4.51-4.12,0-2.93-2-4.85-5.17-4.85h-1.61v9Z" fill="#fbfbfb"/><path d="M434.44,60.18h-4.51V31h4.51Z" fill="#fbfbfb"/><path d="M454.87,60.18h-4L443,40.76V60.18h-4.29V31h4.55l7.35,18.16V31h4.29Z" fill="#fbfbfb"/><path d="M472.28,35.16h-8.71v7.7H470V47h-6.43v9h8.71v4.15H459.07V31h13.21Z" fill="#fbfbfb"/><path d="M483.39,60.18h-4.51v-25h-5.64V31h15.84v4.16h-5.69Z" fill="#fbfbfb"/><path d="M502.33,39.14c-.7-2.89-2-4.33-3.85-4.33a2.89,2.89,0,0,0-2.93,3,4.36,4.36,0,0,0,1.23,2.93c.74.83.74.83,3.85,3.2A24.17,24.17,0,0,1,505,47.84a8.55,8.55,0,0,1,1.88,5.34c0,4.42-3.24,7.44-8,7.44-5,0-7.91-2.67-8.83-8.23l4.33-1.26c.57,3.5,2.1,5.25,4.5,5.25a3.18,3.18,0,0,0,3.33-3.33c0-1.84-.92-3-4.33-5.69-4.07-3.19-4.25-3.37-5.34-4.77a7.89,7.89,0,0,1-1.62-4.85c0-4.2,3.15-7.18,7.61-7.18,4.16,0,7,2.5,8.19,7.31Z" fill="#fbfbfb"/></g><g id="tm"><path d="M295.18,31.35v5.37h-.63V31.35h-1.72v-.56h4.07v.56Z" fill="#fbfbfb"/><path d="M302.41,36.72V32.21l-1.62,3.57h-.54l-1.65-3.57v4.51H298V30.79h.64l1.93,4.2,1.88-4.2h.64v5.93Z" fill="#fbfbfb"/></g></g></svg>