<svg xmlns="http://www.w3.org/2000/svg" viewBox="0 0 728 90"><title>txt2</title><g id="Layer_2" data-name="Layer 2"><g id="rect"><rect width="728" height="90" fill="none"/></g><g id="with_a_new_fast-drying_formula" data-name="with a new, fast-drying formula"><path d="M40,61.81,36.38,43,33,61.81H29L23.79,34H28l3.17,17.92L34.46,34h3.71l3.67,17.92L44.63,34h4L44,61.81Z" fill="#fbfbfb"/><path d="M55.92,61.81H51.63V34h4.29Z" fill="#fbfbfb"/><path d="M68,61.81H63.71V38H58.33V34H73.42v4H68Z" fill="#fbfbfb"/><path d="M80.08,49.56V61.81H75.79V34h4.29V45.6h6.13V34H90.5V61.81H86.21V49.56Z" fill="#fbfbfb"/><path d="M105.42,55.77l-1.13,6h-4.21L105.42,34h5.87l5.63,27.79H112.5l-1.17-6Zm2.91-16.42-2.25,12.46h4.55Z" fill="#fbfbfb"/><path d="M141.67,61.81h-3.84l-7.5-18.5v18.5h-4.08V34h4.33l7,17.29V34h4.09Z" fill="#fbfbfb"/><path d="M158.46,38h-8.29v7.33h6.12v4h-6.12v8.58h8.29v4H145.87V34h12.59Z" fill="#fbfbfb"/><path d="M176.29,61.81,172.71,43l-3.38,18.83h-4L160.12,34h4.17l3.17,17.92L170.79,34h3.71l3.67,17.92L181,34h4l-4.71,27.79Z" fill="#fbfbfb"/><path d="M191.46,61.81,189,67.56h-1.59l1.84-5.75h-1.84V57.35h4.05Z" fill="#fbfbfb"/><path d="M205.83,61.81h-4.29V34h12.71v4h-8.42v7.5h6.25v4h-6.25Z" fill="#fbfbfb"/><path d="M221.16,55.77l-1.12,6h-4.21L221.16,34H227l5.62,27.79h-4.41l-1.17-6Zm2.92-16.42-2.25,12.46h4.54Z" fill="#fbfbfb"/><path d="M246.08,41.77c-.67-2.75-1.92-4.13-3.67-4.13a2.75,2.75,0,0,0-2.79,2.84,4.17,4.17,0,0,0,1.17,2.79c.71.79.71.79,3.67,3a23.46,23.46,0,0,1,4.12,3.75,8.1,8.1,0,0,1,1.79,5.08c0,4.21-3.08,7.09-7.62,7.09-4.75,0-7.55-2.54-8.42-7.84l4.12-1.2c.55,3.33,2,5,4.3,5A3,3,0,0,0,245.91,55c0-1.75-.87-2.88-4.12-5.42-3.88-3-4-3.21-5.09-4.54a7.53,7.53,0,0,1-1.54-4.62c0-4,3-6.84,7.25-6.84,4,0,6.63,2.38,7.8,7Z" fill="#fbfbfb"/><path d="M261.2,61.81h-4.29V38h-5.37V34h15.08v4H261.2Z" fill="#fbfbfb"/><path d="M272.83,53h-6V49.52h6Z" fill="#fbfbfb"/><path d="M275,34h6.8c5.46,0,8,2.79,8,8.71V53.1c0,5.92-2.58,8.71-8,8.71H275Zm6.42,23.83c3,0,4.13-1.58,4.13-5.91v-8c0-4.37-1.09-5.91-4.13-5.91h-2.12V57.85Z" fill="#fbfbfb"/><path d="M298,61.81h-4.3V34h6.71c2.54,0,4.17.5,5.5,1.66a7.85,7.85,0,0,1,2.5,6.3c0,3.5-1.25,5.91-3.75,7.21l4.09,12.62h-4.5l-3.67-11.42H298Zm1.58-15.37c1.83,0,2.67-.21,3.33-.88a4.6,4.6,0,0,0,1-3.37,4.58,4.58,0,0,0-1-3.34c-.66-.67-1.5-.87-3.33-.87H298v8.46Z" fill="#fbfbfb"/><path d="M321.12,61.81h-4.29V51l-6.25-17h4.75L319,45.77,322.87,34h4.67l-6.42,17Z" fill="#fbfbfb"/><path d="M334.62,61.81h-4.29V34h4.29Z" fill="#fbfbfb"/><path d="M354.29,61.81h-3.84L343,43.31v18.5h-4.08V34h4.33l7,17.29V34h4.09Z" fill="#fbfbfb"/><path d="M373.37,48V61.81h-2.21l-.79-2.37a5.8,5.8,0,0,1-5.21,2.79A6.29,6.29,0,0,1,359.41,59c-.92-1.79-1.21-3.58-1.21-7.42V43.89c0-4.41.34-6,1.63-7.71a7,7,0,0,1,5.87-2.58,6.87,6.87,0,0,1,6.55,3.71,12.35,12.35,0,0,1,1,5.75H369c0-3.83-1-5.42-3.29-5.42a2.72,2.72,0,0,0-2.54,1.42c-.5.92-.63,1.75-.63,4v8.5A14.77,14.77,0,0,0,363,56.1a3,3,0,0,0,2.92,2.09c2.25,0,3.21-1.63,3.21-5.5V51.56h-3.54V48Z" fill="#fbfbfb"/><path d="M387.83,61.81h-4.29V34h12.71v4h-8.42v7.5h6.25v4h-6.25Z" fill="#fbfbfb"/><path d="M413.7,53c0,3.12-.45,5-1.58,6.58a8.08,8.08,0,0,1-12,0C399,58,398.54,56.1,398.54,53V42.85c0-3.12.45-5,1.58-6.58a8.08,8.08,0,0,1,12,0c1.13,1.58,1.58,3.46,1.58,6.58Zm-10.87-.09c0,2.21.12,3,.54,3.8a3.27,3.27,0,0,0,5.5,0c.46-.88.54-1.55.54-3.8v-10c0-2.25-.08-2.92-.54-3.8a3.27,3.27,0,0,0-5.5,0c-.42.84-.54,1.59-.54,3.8Z" fill="#fbfbfb"/><path d="M422,61.81h-4.29V34h6.71c2.54,0,4.17.5,5.5,1.66a7.85,7.85,0,0,1,2.5,6.3c0,3.5-1.25,5.91-3.75,7.21l4.08,12.62h-4.5l-3.66-11.42H422Zm1.59-15.37c1.83,0,2.66-.21,3.33-.88a4.6,4.6,0,0,0,1-3.37,4.58,4.58,0,0,0-1-3.34c-.67-.67-1.5-.87-3.33-.87H422v8.46Z" fill="#fbfbfb"/><path d="M456.16,61.81h-4.08V41.35l-4.84,20.46h-2.41L440,41.35V61.81H436V34h6.29l3.84,17.46L450,34h6.21Z" fill="#fbfbfb"/><path d="M475.12,34V52.85c0,3.5-.42,5.3-1.58,6.88a7.92,7.92,0,0,1-11.55,0c-1.16-1.58-1.58-3.38-1.58-6.88V34h4.29V53.56c0,3.29.88,4.63,3.08,4.63s3.05-1.34,3.05-4.63V34Z" fill="#fbfbfb"/><path d="M483.62,57.85h8.54v4H479.33V34h4.29Z" fill="#fbfbfb"/><path d="M499.16,55.77l-1.13,6h-4.2L499.16,34H505l5.62,27.79h-4.42l-1.16-6Zm2.92-16.42-2.25,12.46h4.54Z" fill="#fbfbfb"/></g></g></svg>